<svg xmlns="http://www.w3.org/2000/svg" xmlns:xlink="http://www.w3.org/1999/xlink" width="600" height="400" viewBox="0 0 2400 1600">
<defs>
  <clipPath id="clip230">
    <rect x="0" y="0" width="2400" height="1600"></rect>
  </clipPath>
</defs>
<path clip-path="url(#clip230)" d="M0 1600 L2400 1600 L2400 0 L0 0  Z" fill="#ffffff" fill-rule="evenodd" fill-opacity="1"></path>
<defs>
  <clipPath id="clip231">
    <rect x="480" y="0" width="1681" height="1600"></rect>
  </clipPath>
</defs>
<path clip-path="url(#clip230)" d="M193.936 1486.45 L2352.76 1486.45 L2352.76 47.2441 L193.936 47.2441  Z" fill="#ffffff" fill-rule="evenodd" fill-opacity="1"></path>
<defs>
  <clipPath id="clip232">
    <rect x="193" y="47" width="2160" height="1440"></rect>
  </clipPath>
</defs>
<polyline clip-path="url(#clip232)" style="stroke:#000000; stroke-linecap:round; stroke-linejoin:round; stroke-width:2; stroke-opacity:0.1; fill:none" points="204.119,1486.45 204.119,47.2441 "></polyline>
<polyline clip-path="url(#clip232)" style="stroke:#000000; stroke-linecap:round; stroke-linejoin:round; stroke-width:2; stroke-opacity:0.1; fill:none" points="713.275,1486.45 713.275,47.2441 "></polyline>
<polyline clip-path="url(#clip232)" style="stroke:#000000; stroke-linecap:round; stroke-linejoin:round; stroke-width:2; stroke-opacity:0.1; fill:none" points="1222.43,1486.45 1222.43,47.2441 "></polyline>
<polyline clip-path="url(#clip232)" style="stroke:#000000; stroke-linecap:round; stroke-linejoin:round; stroke-width:2; stroke-opacity:0.1; fill:none" points="1731.59,1486.45 1731.59,47.2441 "></polyline>
<polyline clip-path="url(#clip232)" style="stroke:#000000; stroke-linecap:round; stroke-linejoin:round; stroke-width:2; stroke-opacity:0.1; fill:none" points="2240.74,1486.45 2240.74,47.2441 "></polyline>
<polyline clip-path="url(#clip230)" style="stroke:#000000; stroke-linecap:round; stroke-linejoin:round; stroke-width:4; stroke-opacity:1; fill:none" points="193.936,1486.45 2352.76,1486.45 "></polyline>
<polyline clip-path="url(#clip230)" style="stroke:#000000; stroke-linecap:round; stroke-linejoin:round; stroke-width:4; stroke-opacity:1; fill:none" points="204.119,1486.45 204.119,1467.55 "></polyline>
<polyline clip-path="url(#clip230)" style="stroke:#000000; stroke-linecap:round; stroke-linejoin:round; stroke-width:4; stroke-opacity:1; fill:none" points="713.275,1486.45 713.275,1467.55 "></polyline>
<polyline clip-path="url(#clip230)" style="stroke:#000000; stroke-linecap:round; stroke-linejoin:round; stroke-width:4; stroke-opacity:1; fill:none" points="1222.43,1486.45 1222.43,1467.55 "></polyline>
<polyline clip-path="url(#clip230)" style="stroke:#000000; stroke-linecap:round; stroke-linejoin:round; stroke-width:4; stroke-opacity:1; fill:none" points="1731.59,1486.45 1731.59,1467.55 "></polyline>
<polyline clip-path="url(#clip230)" style="stroke:#000000; stroke-linecap:round; stroke-linejoin:round; stroke-width:4; stroke-opacity:1; fill:none" points="2240.74,1486.45 2240.74,1467.55 "></polyline>
<path clip-path="url(#clip230)" d="M204.119 1517.37 Q200.508 1517.37 198.679 1520.93 Q196.874 1524.47 196.874 1531.6 Q196.874 1538.71 198.679 1542.27 Q200.508 1545.82 204.119 1545.82 Q207.753 1545.82 209.559 1542.27 Q211.388 1538.71 211.388 1531.6 Q211.388 1524.47 209.559 1520.93 Q207.753 1517.37 204.119 1517.37 M204.119 1513.66 Q209.929 1513.66 212.985 1518.27 Q216.063 1522.85 216.063 1531.6 Q216.063 1540.33 212.985 1544.94 Q209.929 1549.52 204.119 1549.52 Q198.309 1549.52 195.23 1544.94 Q192.175 1540.33 192.175 1531.6 Q192.175 1522.85 195.23 1518.27 Q198.309 1513.66 204.119 1513.66 Z" fill="#000000" fill-rule="nonzero" fill-opacity="1"></path><path clip-path="url(#clip230)" d="M687.962 1544.91 L695.601 1544.91 L695.601 1518.55 L687.291 1520.21 L687.291 1515.95 L695.555 1514.29 L700.231 1514.29 L700.231 1544.91 L707.87 1544.91 L707.87 1548.85 L687.962 1548.85 L687.962 1544.91 Z" fill="#000000" fill-rule="nonzero" fill-opacity="1"></path><path clip-path="url(#clip230)" d="M727.314 1517.37 Q723.703 1517.37 721.874 1520.93 Q720.069 1524.47 720.069 1531.6 Q720.069 1538.71 721.874 1542.27 Q723.703 1545.82 727.314 1545.82 Q730.948 1545.82 732.754 1542.27 Q734.583 1538.71 734.583 1531.6 Q734.583 1524.47 732.754 1520.93 Q730.948 1517.37 727.314 1517.37 M727.314 1513.66 Q733.124 1513.66 736.18 1518.27 Q739.258 1522.85 739.258 1531.6 Q739.258 1540.33 736.18 1544.94 Q733.124 1549.52 727.314 1549.52 Q721.504 1549.52 718.425 1544.94 Q715.37 1540.33 715.37 1531.6 Q715.37 1522.85 718.425 1518.27 Q721.504 1513.66 727.314 1513.66 Z" fill="#000000" fill-rule="nonzero" fill-opacity="1"></path><path clip-path="url(#clip230)" d="M1201.2 1544.91 L1217.52 1544.91 L1217.52 1548.85 L1195.58 1548.85 L1195.58 1544.91 Q1198.24 1542.16 1202.82 1537.53 Q1207.43 1532.88 1208.61 1531.53 Q1210.86 1529.01 1211.74 1527.27 Q1212.64 1525.51 1212.64 1523.82 Q1212.64 1521.07 1210.69 1519.33 Q1208.77 1517.6 1205.67 1517.6 Q1203.47 1517.6 1201.02 1518.36 Q1198.59 1519.13 1195.81 1520.68 L1195.81 1515.95 Q1198.63 1514.82 1201.09 1514.24 Q1203.54 1513.66 1205.58 1513.66 Q1210.95 1513.66 1214.14 1516.35 Q1217.34 1519.03 1217.34 1523.52 Q1217.34 1525.65 1216.53 1527.57 Q1215.74 1529.47 1213.63 1532.07 Q1213.06 1532.74 1209.95 1535.95 Q1206.85 1539.15 1201.2 1544.91 Z" fill="#000000" fill-rule="nonzero" fill-opacity="1"></path><path clip-path="url(#clip230)" d="M1237.34 1517.37 Q1233.73 1517.37 1231.9 1520.93 Q1230.09 1524.47 1230.09 1531.6 Q1230.09 1538.71 1231.9 1542.27 Q1233.73 1545.82 1237.34 1545.82 Q1240.97 1545.82 1242.78 1542.27 Q1244.61 1538.71 1244.61 1531.6 Q1244.61 1524.47 1242.78 1520.93 Q1240.97 1517.37 1237.34 1517.37 M1237.34 1513.66 Q1243.15 1513.66 1246.2 1518.27 Q1249.28 1522.85 1249.28 1531.6 Q1249.28 1540.33 1246.2 1544.94 Q1243.15 1549.52 1237.34 1549.52 Q1231.53 1549.52 1228.45 1544.94 Q1225.39 1540.33 1225.39 1531.6 Q1225.39 1522.85 1228.45 1518.27 Q1231.53 1513.66 1237.34 1513.66 Z" fill="#000000" fill-rule="nonzero" fill-opacity="1"></path><path clip-path="url(#clip230)" d="M1720.43 1530.21 Q1723.79 1530.93 1725.66 1533.2 Q1727.56 1535.47 1727.56 1538.8 Q1727.56 1543.92 1724.04 1546.72 Q1720.52 1549.52 1714.04 1549.52 Q1711.86 1549.52 1709.55 1549.08 Q1707.26 1548.66 1704.8 1547.81 L1704.8 1543.29 Q1706.75 1544.43 1709.06 1545.01 Q1711.38 1545.58 1713.9 1545.58 Q1718.3 1545.58 1720.59 1543.85 Q1722.91 1542.11 1722.91 1538.8 Q1722.91 1535.75 1720.75 1534.03 Q1718.62 1532.3 1714.8 1532.3 L1710.78 1532.3 L1710.78 1528.45 L1714.99 1528.45 Q1718.44 1528.45 1720.27 1527.09 Q1722.1 1525.7 1722.1 1523.11 Q1722.1 1520.45 1720.2 1519.03 Q1718.32 1517.6 1714.8 1517.6 Q1712.88 1517.6 1710.68 1518.01 Q1708.48 1518.43 1705.85 1519.31 L1705.85 1515.14 Q1708.51 1514.4 1710.82 1514.03 Q1713.16 1513.66 1715.22 1513.66 Q1720.54 1513.66 1723.65 1516.09 Q1726.75 1518.5 1726.75 1522.62 Q1726.75 1525.49 1725.1 1527.48 Q1723.46 1529.45 1720.43 1530.21 Z" fill="#000000" fill-rule="nonzero" fill-opacity="1"></path><path clip-path="url(#clip230)" d="M1746.42 1517.37 Q1742.81 1517.37 1740.98 1520.93 Q1739.18 1524.47 1739.18 1531.6 Q1739.18 1538.71 1740.98 1542.27 Q1742.81 1545.82 1746.42 1545.82 Q1750.06 1545.82 1751.86 1542.27 Q1753.69 1538.71 1753.69 1531.6 Q1753.69 1524.47 1751.86 1520.93 Q1750.06 1517.37 1746.42 1517.37 M1746.42 1513.66 Q1752.23 1513.66 1755.29 1518.27 Q1758.37 1522.85 1758.37 1531.6 Q1758.37 1540.33 1755.29 1544.94 Q1752.23 1549.52 1746.42 1549.52 Q1740.61 1549.52 1737.54 1544.94 Q1734.48 1540.33 1734.48 1531.6 Q1734.48 1522.85 1737.54 1518.27 Q1740.61 1513.66 1746.42 1513.66 Z" fill="#000000" fill-rule="nonzero" fill-opacity="1"></path><path clip-path="url(#clip230)" d="M2228.91 1518.36 L2217.11 1536.81 L2228.91 1536.81 L2228.91 1518.36 M2227.69 1514.29 L2233.57 1514.29 L2233.57 1536.81 L2238.5 1536.81 L2238.5 1540.7 L2233.57 1540.7 L2233.57 1548.85 L2228.91 1548.85 L2228.91 1540.7 L2213.31 1540.7 L2213.31 1536.19 L2227.69 1514.29 Z" fill="#000000" fill-rule="nonzero" fill-opacity="1"></path><path clip-path="url(#clip230)" d="M2256.23 1517.37 Q2252.62 1517.37 2250.79 1520.93 Q2248.98 1524.47 2248.98 1531.6 Q2248.98 1538.71 2250.79 1542.27 Q2252.62 1545.82 2256.23 1545.82 Q2259.86 1545.82 2261.67 1542.27 Q2263.5 1538.71 2263.5 1531.6 Q2263.5 1524.47 2261.67 1520.93 Q2259.86 1517.37 2256.23 1517.37 M2256.23 1513.66 Q2262.04 1513.66 2265.09 1518.27 Q2268.17 1522.85 2268.17 1531.6 Q2268.17 1540.33 2265.09 1544.94 Q2262.04 1549.52 2256.23 1549.52 Q2250.42 1549.52 2247.34 1544.94 Q2244.28 1540.33 2244.28 1531.6 Q2244.28 1522.85 2247.34 1518.27 Q2250.42 1513.66 2256.23 1513.66 Z" fill="#000000" fill-rule="nonzero" fill-opacity="1"></path><polyline clip-path="url(#clip232)" style="stroke:#000000; stroke-linecap:round; stroke-linejoin:round; stroke-width:2; stroke-opacity:0.1; fill:none" points="193.936,1445.72 2352.76,1445.72 "></polyline>
<polyline clip-path="url(#clip232)" style="stroke:#000000; stroke-linecap:round; stroke-linejoin:round; stroke-width:2; stroke-opacity:0.1; fill:none" points="193.936,1106.28 2352.76,1106.28 "></polyline>
<polyline clip-path="url(#clip232)" style="stroke:#000000; stroke-linecap:round; stroke-linejoin:round; stroke-width:2; stroke-opacity:0.1; fill:none" points="193.936,766.846 2352.76,766.846 "></polyline>
<polyline clip-path="url(#clip232)" style="stroke:#000000; stroke-linecap:round; stroke-linejoin:round; stroke-width:2; stroke-opacity:0.1; fill:none" points="193.936,427.411 2352.76,427.411 "></polyline>
<polyline clip-path="url(#clip232)" style="stroke:#000000; stroke-linecap:round; stroke-linejoin:round; stroke-width:2; stroke-opacity:0.1; fill:none" points="193.936,87.9763 2352.76,87.9763 "></polyline>
<polyline clip-path="url(#clip230)" style="stroke:#000000; stroke-linecap:round; stroke-linejoin:round; stroke-width:4; stroke-opacity:1; fill:none" points="193.936,1486.45 193.936,47.2441 "></polyline>
<polyline clip-path="url(#clip230)" style="stroke:#000000; stroke-linecap:round; stroke-linejoin:round; stroke-width:4; stroke-opacity:1; fill:none" points="193.936,1445.72 212.834,1445.72 "></polyline>
<polyline clip-path="url(#clip230)" style="stroke:#000000; stroke-linecap:round; stroke-linejoin:round; stroke-width:4; stroke-opacity:1; fill:none" points="193.936,1106.28 212.834,1106.28 "></polyline>
<polyline clip-path="url(#clip230)" style="stroke:#000000; stroke-linecap:round; stroke-linejoin:round; stroke-width:4; stroke-opacity:1; fill:none" points="193.936,766.846 212.834,766.846 "></polyline>
<polyline clip-path="url(#clip230)" style="stroke:#000000; stroke-linecap:round; stroke-linejoin:round; stroke-width:4; stroke-opacity:1; fill:none" points="193.936,427.411 212.834,427.411 "></polyline>
<polyline clip-path="url(#clip230)" style="stroke:#000000; stroke-linecap:round; stroke-linejoin:round; stroke-width:4; stroke-opacity:1; fill:none" points="193.936,87.9763 212.834,87.9763 "></polyline>
<path clip-path="url(#clip230)" d="M50.9921 1446.17 L80.6679 1446.17 L80.6679 1450.1 L50.9921 1450.1 L50.9921 1446.17 Z" fill="#000000" fill-rule="nonzero" fill-opacity="1"></path><path clip-path="url(#clip230)" d="M91.5706 1459.06 L99.2095 1459.06 L99.2095 1432.69 L90.8993 1434.36 L90.8993 1430.1 L99.1632 1428.44 L103.839 1428.44 L103.839 1459.06 L111.478 1459.06 L111.478 1463 L91.5706 1463 L91.5706 1459.06 Z" fill="#000000" fill-rule="nonzero" fill-opacity="1"></path><path clip-path="url(#clip230)" d="M120.922 1457.12 L125.807 1457.12 L125.807 1463 L120.922 1463 L120.922 1457.12 Z" fill="#000000" fill-rule="nonzero" fill-opacity="1"></path><path clip-path="url(#clip230)" d="M145.992 1431.51 Q142.381 1431.51 140.552 1435.08 Q138.746 1438.62 138.746 1445.75 Q138.746 1452.86 140.552 1456.42 Q142.381 1459.96 145.992 1459.96 Q149.626 1459.96 151.431 1456.42 Q153.26 1452.86 153.26 1445.75 Q153.26 1438.62 151.431 1435.08 Q149.626 1431.51 145.992 1431.51 M145.992 1427.81 Q151.802 1427.81 154.857 1432.42 Q157.936 1437 157.936 1445.75 Q157.936 1454.48 154.857 1459.08 Q151.802 1463.67 145.992 1463.67 Q140.181 1463.67 137.103 1459.08 Q134.047 1454.48 134.047 1445.75 Q134.047 1437 137.103 1432.42 Q140.181 1427.81 145.992 1427.81 Z" fill="#000000" fill-rule="nonzero" fill-opacity="1"></path><path clip-path="url(#clip230)" d="M51.9875 1106.73 L81.6633 1106.73 L81.6633 1110.67 L51.9875 1110.67 L51.9875 1106.73 Z" fill="#000000" fill-rule="nonzero" fill-opacity="1"></path><path clip-path="url(#clip230)" d="M101.756 1092.08 Q98.1447 1092.08 96.316 1095.64 Q94.5104 1099.19 94.5104 1106.32 Q94.5104 1113.42 96.316 1116.99 Q98.1447 1120.53 101.756 1120.53 Q105.39 1120.53 107.196 1116.99 Q109.024 1113.42 109.024 1106.32 Q109.024 1099.19 107.196 1095.64 Q105.39 1092.08 101.756 1092.08 M101.756 1088.38 Q107.566 1088.38 110.621 1092.98 Q113.7 1097.57 113.7 1106.32 Q113.7 1115.04 110.621 1119.65 Q107.566 1124.23 101.756 1124.23 Q95.9456 1124.23 92.8669 1119.65 Q89.8114 1115.04 89.8114 1106.32 Q89.8114 1097.57 92.8669 1092.98 Q95.9456 1088.38 101.756 1088.38 Z" fill="#000000" fill-rule="nonzero" fill-opacity="1"></path><path clip-path="url(#clip230)" d="M121.918 1117.68 L126.802 1117.68 L126.802 1123.56 L121.918 1123.56 L121.918 1117.68 Z" fill="#000000" fill-rule="nonzero" fill-opacity="1"></path><path clip-path="url(#clip230)" d="M137.033 1089 L155.39 1089 L155.39 1092.94 L141.316 1092.94 L141.316 1101.41 Q142.334 1101.06 143.353 1100.9 Q144.371 1100.71 145.39 1100.71 Q151.177 1100.71 154.556 1103.89 Q157.936 1107.06 157.936 1112.47 Q157.936 1118.05 154.464 1121.15 Q150.992 1124.23 144.672 1124.23 Q142.496 1124.23 140.228 1123.86 Q137.982 1123.49 135.575 1122.75 L135.575 1118.05 Q137.658 1119.19 139.881 1119.74 Q142.103 1120.3 144.58 1120.3 Q148.584 1120.3 150.922 1118.19 Q153.26 1116.08 153.26 1112.47 Q153.26 1108.86 150.922 1106.76 Q148.584 1104.65 144.58 1104.65 Q142.705 1104.65 140.83 1105.07 Q138.978 1105.48 137.033 1106.36 L137.033 1089 Z" fill="#000000" fill-rule="nonzero" fill-opacity="1"></path><path clip-path="url(#clip230)" d="M100.76 752.645 Q97.1493 752.645 95.3206 756.209 Q93.515 759.751 93.515 766.881 Q93.515 773.987 95.3206 777.552 Q97.1493 781.094 100.76 781.094 Q104.395 781.094 106.2 777.552 Q108.029 773.987 108.029 766.881 Q108.029 759.751 106.2 756.209 Q104.395 752.645 100.76 752.645 M100.76 748.941 Q106.571 748.941 109.626 753.547 Q112.705 758.131 112.705 766.881 Q112.705 775.608 109.626 780.214 Q106.571 784.797 100.76 784.797 Q94.9502 784.797 91.8715 780.214 Q88.816 775.608 88.816 766.881 Q88.816 758.131 91.8715 753.547 Q94.9502 748.941 100.76 748.941 Z" fill="#000000" fill-rule="nonzero" fill-opacity="1"></path><path clip-path="url(#clip230)" d="M120.922 778.246 L125.807 778.246 L125.807 784.126 L120.922 784.126 L120.922 778.246 Z" fill="#000000" fill-rule="nonzero" fill-opacity="1"></path><path clip-path="url(#clip230)" d="M145.992 752.645 Q142.381 752.645 140.552 756.209 Q138.746 759.751 138.746 766.881 Q138.746 773.987 140.552 777.552 Q142.381 781.094 145.992 781.094 Q149.626 781.094 151.431 777.552 Q153.26 773.987 153.26 766.881 Q153.26 759.751 151.431 756.209 Q149.626 752.645 145.992 752.645 M145.992 748.941 Q151.802 748.941 154.857 753.547 Q157.936 758.131 157.936 766.881 Q157.936 775.608 154.857 780.214 Q151.802 784.797 145.992 784.797 Q140.181 784.797 137.103 780.214 Q134.047 775.608 134.047 766.881 Q134.047 758.131 137.103 753.547 Q140.181 748.941 145.992 748.941 Z" fill="#000000" fill-rule="nonzero" fill-opacity="1"></path><path clip-path="url(#clip230)" d="M101.756 413.21 Q98.1447 413.21 96.316 416.775 Q94.5104 420.316 94.5104 427.446 Q94.5104 434.552 96.316 438.117 Q98.1447 441.659 101.756 441.659 Q105.39 441.659 107.196 438.117 Q109.024 434.552 109.024 427.446 Q109.024 420.316 107.196 416.775 Q105.39 413.21 101.756 413.21 M101.756 409.506 Q107.566 409.506 110.621 414.113 Q113.7 418.696 113.7 427.446 Q113.7 436.173 110.621 440.779 Q107.566 445.362 101.756 445.362 Q95.9456 445.362 92.8669 440.779 Q89.8114 436.173 89.8114 427.446 Q89.8114 418.696 92.8669 414.113 Q95.9456 409.506 101.756 409.506 Z" fill="#000000" fill-rule="nonzero" fill-opacity="1"></path><path clip-path="url(#clip230)" d="M121.918 438.812 L126.802 438.812 L126.802 444.691 L121.918 444.691 L121.918 438.812 Z" fill="#000000" fill-rule="nonzero" fill-opacity="1"></path><path clip-path="url(#clip230)" d="M137.033 410.131 L155.39 410.131 L155.39 414.066 L141.316 414.066 L141.316 422.538 Q142.334 422.191 143.353 422.029 Q144.371 421.844 145.39 421.844 Q151.177 421.844 154.556 425.015 Q157.936 428.187 157.936 433.603 Q157.936 439.182 154.464 442.284 Q150.992 445.362 144.672 445.362 Q142.496 445.362 140.228 444.992 Q137.982 444.622 135.575 443.881 L135.575 439.182 Q137.658 440.316 139.881 440.872 Q142.103 441.427 144.58 441.427 Q148.584 441.427 150.922 439.321 Q153.26 437.214 153.26 433.603 Q153.26 429.992 150.922 427.886 Q148.584 425.779 144.58 425.779 Q142.705 425.779 140.83 426.196 Q138.978 426.613 137.033 427.492 L137.033 410.131 Z" fill="#000000" fill-rule="nonzero" fill-opacity="1"></path><path clip-path="url(#clip230)" d="M91.5706 101.321 L99.2095 101.321 L99.2095 74.9555 L90.8993 76.6222 L90.8993 72.3629 L99.1632 70.6963 L103.839 70.6963 L103.839 101.321 L111.478 101.321 L111.478 105.256 L91.5706 105.256 L91.5706 101.321 Z" fill="#000000" fill-rule="nonzero" fill-opacity="1"></path><path clip-path="url(#clip230)" d="M120.922 99.3767 L125.807 99.3767 L125.807 105.256 L120.922 105.256 L120.922 99.3767 Z" fill="#000000" fill-rule="nonzero" fill-opacity="1"></path><path clip-path="url(#clip230)" d="M145.992 73.775 Q142.381 73.775 140.552 77.3398 Q138.746 80.8814 138.746 88.011 Q138.746 95.1174 140.552 98.6822 Q142.381 102.224 145.992 102.224 Q149.626 102.224 151.431 98.6822 Q153.26 95.1174 153.26 88.011 Q153.26 80.8814 151.431 77.3398 Q149.626 73.775 145.992 73.775 M145.992 70.0713 Q151.802 70.0713 154.857 74.6777 Q157.936 79.261 157.936 88.011 Q157.936 96.7378 154.857 101.344 Q151.802 105.928 145.992 105.928 Q140.181 105.928 137.103 101.344 Q134.047 96.7378 134.047 88.011 Q134.047 79.261 137.103 74.6777 Q140.181 70.0713 145.992 70.0713 Z" fill="#000000" fill-rule="nonzero" fill-opacity="1"></path><polyline clip-path="url(#clip232)" style="stroke:#009af9; stroke-linecap:round; stroke-linejoin:round; stroke-width:4; stroke-opacity:1; fill:none" points="255.035,87.9763 305.95,1445.72 356.866,1445.72 407.781,1445.72 458.697,1445.72 509.612,1445.72 560.528,1445.72 611.444,1445.72 662.359,1445.72 713.275,1445.72 764.19,1445.72 815.106,1445.72 866.021,1445.72 916.937,1445.72 967.853,1445.72 1018.77,1445.72 1069.68,1445.72 1120.6,1445.72 1171.51,1445.72 1222.43,1445.72 1273.35,1445.72 1324.26,1445.72 1375.18,1445.72 1426.09,1445.72 1477.01,1445.72 1527.92,1445.72 1578.84,1445.72 1629.75,1445.72 1680.67,1445.72 1731.59,1445.72 1782.5,1445.72 1833.42,1445.72 1884.33,1445.72 1935.25,1445.72 1986.16,1445.72 2037.08,1445.72 2087.99,1445.72 2138.91,1445.72 2189.83,1445.72 2240.74,1445.72 2291.66,1445.72 "></polyline>
<path clip-path="url(#clip230)" d="M2012.48 198.898 L2280.8 198.898 L2280.8 95.2176 L2012.48 95.2176  Z" fill="#ffffff" fill-rule="evenodd" fill-opacity="1"></path>
<polyline clip-path="url(#clip230)" style="stroke:#000000; stroke-linecap:round; stroke-linejoin:round; stroke-width:4; stroke-opacity:1; fill:none" points="2012.48,198.898 2280.8,198.898 2280.8,95.2176 2012.48,95.2176 2012.48,198.898 "></polyline>
<polyline clip-path="url(#clip230)" style="stroke:#009af9; stroke-linecap:round; stroke-linejoin:round; stroke-width:4; stroke-opacity:1; fill:none" points="2036.47,147.058 2180.39,147.058 "></polyline>
<path clip-path="url(#clip230)" d="M2218.22 166.745 Q2216.42 171.375 2214.7 172.787 Q2212.99 174.199 2210.12 174.199 L2206.72 174.199 L2206.72 170.634 L2209.22 170.634 Q2210.98 170.634 2211.95 169.8 Q2212.92 168.967 2214.1 165.865 L2214.86 163.921 L2204.38 138.412 L2208.89 138.412 L2216.99 158.689 L2225.1 138.412 L2229.61 138.412 L2218.22 166.745 Z" fill="#000000" fill-rule="nonzero" fill-opacity="1"></path><path clip-path="url(#clip230)" d="M2236.9 160.402 L2244.54 160.402 L2244.54 134.037 L2236.23 135.703 L2236.23 131.444 L2244.49 129.778 L2249.17 129.778 L2249.17 160.402 L2256.81 160.402 L2256.81 164.338 L2236.9 164.338 L2236.9 160.402 Z" fill="#000000" fill-rule="nonzero" fill-opacity="1"></path></svg>