<svg xmlns="http://www.w3.org/2000/svg" xmlns:xlink="http://www.w3.org/1999/xlink" width="600" height="400" viewBox="0 0 2400 1600">
<defs>
  <clipPath id="clip470">
    <rect x="0" y="0" width="2400" height="1600"></rect>
  </clipPath>
</defs>
<path clip-path="url(#clip470)" d="M0 1600 L2400 1600 L2400 0 L0 0  Z" fill="#ffffff" fill-rule="evenodd" fill-opacity="1"></path>
<defs>
  <clipPath id="clip471">
    <rect x="480" y="0" width="1681" height="1600"></rect>
  </clipPath>
</defs>
<path clip-path="url(#clip470)" d="M194.098 1486.45 L2352.76 1486.45 L2352.76 47.2441 L194.098 47.2441  Z" fill="#ffffff" fill-rule="evenodd" fill-opacity="1"></path>
<defs>
  <clipPath id="clip472">
    <rect x="194" y="47" width="2160" height="1440"></rect>
  </clipPath>
</defs>
<polyline clip-path="url(#clip472)" style="stroke:#000000; stroke-linecap:round; stroke-linejoin:round; stroke-width:2; stroke-opacity:0.1; fill:none" points="204.28,1486.45 204.28,47.2441 "></polyline>
<polyline clip-path="url(#clip472)" style="stroke:#000000; stroke-linecap:round; stroke-linejoin:round; stroke-width:2; stroke-opacity:0.1; fill:none" points="713.398,1486.45 713.398,47.2441 "></polyline>
<polyline clip-path="url(#clip472)" style="stroke:#000000; stroke-linecap:round; stroke-linejoin:round; stroke-width:2; stroke-opacity:0.1; fill:none" points="1222.52,1486.45 1222.52,47.2441 "></polyline>
<polyline clip-path="url(#clip472)" style="stroke:#000000; stroke-linecap:round; stroke-linejoin:round; stroke-width:2; stroke-opacity:0.1; fill:none" points="1731.63,1486.45 1731.63,47.2441 "></polyline>
<polyline clip-path="url(#clip472)" style="stroke:#000000; stroke-linecap:round; stroke-linejoin:round; stroke-width:2; stroke-opacity:0.1; fill:none" points="2240.75,1486.45 2240.75,47.2441 "></polyline>
<polyline clip-path="url(#clip470)" style="stroke:#000000; stroke-linecap:round; stroke-linejoin:round; stroke-width:4; stroke-opacity:1; fill:none" points="194.098,1486.45 2352.76,1486.45 "></polyline>
<polyline clip-path="url(#clip470)" style="stroke:#000000; stroke-linecap:round; stroke-linejoin:round; stroke-width:4; stroke-opacity:1; fill:none" points="204.28,1486.45 204.28,1467.55 "></polyline>
<polyline clip-path="url(#clip470)" style="stroke:#000000; stroke-linecap:round; stroke-linejoin:round; stroke-width:4; stroke-opacity:1; fill:none" points="713.398,1486.45 713.398,1467.55 "></polyline>
<polyline clip-path="url(#clip470)" style="stroke:#000000; stroke-linecap:round; stroke-linejoin:round; stroke-width:4; stroke-opacity:1; fill:none" points="1222.52,1486.45 1222.52,1467.55 "></polyline>
<polyline clip-path="url(#clip470)" style="stroke:#000000; stroke-linecap:round; stroke-linejoin:round; stroke-width:4; stroke-opacity:1; fill:none" points="1731.63,1486.45 1731.63,1467.55 "></polyline>
<polyline clip-path="url(#clip470)" style="stroke:#000000; stroke-linecap:round; stroke-linejoin:round; stroke-width:4; stroke-opacity:1; fill:none" points="2240.75,1486.45 2240.75,1467.55 "></polyline>
<path clip-path="url(#clip470)" d="M204.28 1517.37 Q200.669 1517.37 198.841 1520.93 Q197.035 1524.47 197.035 1531.6 Q197.035 1538.71 198.841 1542.27 Q200.669 1545.82 204.28 1545.82 Q207.915 1545.82 209.72 1542.27 Q211.549 1538.71 211.549 1531.6 Q211.549 1524.47 209.72 1520.93 Q207.915 1517.37 204.28 1517.37 M204.28 1513.66 Q210.091 1513.66 213.146 1518.27 Q216.225 1522.85 216.225 1531.6 Q216.225 1540.33 213.146 1544.94 Q210.091 1549.52 204.28 1549.52 Q198.47 1549.52 195.392 1544.94 Q192.336 1540.33 192.336 1531.6 Q192.336 1522.85 195.392 1518.27 Q198.47 1513.66 204.28 1513.66 Z" fill="#000000" fill-rule="nonzero" fill-opacity="1"></path><path clip-path="url(#clip470)" d="M688.085 1544.91 L695.724 1544.91 L695.724 1518.55 L687.414 1520.21 L687.414 1515.95 L695.678 1514.29 L700.354 1514.29 L700.354 1544.91 L707.993 1544.91 L707.993 1548.85 L688.085 1548.85 L688.085 1544.91 Z" fill="#000000" fill-rule="nonzero" fill-opacity="1"></path><path clip-path="url(#clip470)" d="M727.437 1517.37 Q723.826 1517.37 721.997 1520.93 Q720.192 1524.47 720.192 1531.6 Q720.192 1538.71 721.997 1542.27 Q723.826 1545.82 727.437 1545.82 Q731.071 1545.82 732.877 1542.27 Q734.706 1538.71 734.706 1531.6 Q734.706 1524.47 732.877 1520.93 Q731.071 1517.37 727.437 1517.37 M727.437 1513.66 Q733.247 1513.66 736.303 1518.27 Q739.381 1522.85 739.381 1531.6 Q739.381 1540.33 736.303 1544.94 Q733.247 1549.52 727.437 1549.52 Q721.627 1549.52 718.548 1544.94 Q715.493 1540.33 715.493 1531.6 Q715.493 1522.85 718.548 1518.27 Q721.627 1513.66 727.437 1513.66 Z" fill="#000000" fill-rule="nonzero" fill-opacity="1"></path><path clip-path="url(#clip470)" d="M1201.29 1544.91 L1217.61 1544.91 L1217.61 1548.85 L1195.66 1548.85 L1195.66 1544.91 Q1198.33 1542.16 1202.91 1537.53 Q1207.52 1532.88 1208.7 1531.53 Q1210.94 1529.01 1211.82 1527.27 Q1212.72 1525.51 1212.72 1523.82 Q1212.72 1521.07 1210.78 1519.33 Q1208.86 1517.6 1205.76 1517.6 Q1203.56 1517.6 1201.1 1518.36 Q1198.67 1519.13 1195.89 1520.68 L1195.89 1515.95 Q1198.72 1514.82 1201.17 1514.24 Q1203.63 1513.66 1205.66 1513.66 Q1211.03 1513.66 1214.23 1516.35 Q1217.42 1519.03 1217.42 1523.52 Q1217.42 1525.65 1216.61 1527.57 Q1215.83 1529.47 1213.72 1532.07 Q1213.14 1532.74 1210.04 1535.95 Q1206.94 1539.15 1201.29 1544.91 Z" fill="#000000" fill-rule="nonzero" fill-opacity="1"></path><path clip-path="url(#clip470)" d="M1237.42 1517.37 Q1233.81 1517.37 1231.98 1520.93 Q1230.18 1524.47 1230.18 1531.6 Q1230.18 1538.71 1231.98 1542.27 Q1233.81 1545.82 1237.42 1545.82 Q1241.06 1545.82 1242.86 1542.27 Q1244.69 1538.71 1244.69 1531.6 Q1244.69 1524.47 1242.86 1520.93 Q1241.06 1517.37 1237.42 1517.37 M1237.42 1513.66 Q1243.23 1513.66 1246.29 1518.27 Q1249.37 1522.85 1249.37 1531.6 Q1249.37 1540.33 1246.29 1544.94 Q1243.23 1549.52 1237.42 1549.52 Q1231.61 1549.52 1228.53 1544.94 Q1225.48 1540.33 1225.48 1531.6 Q1225.48 1522.85 1228.53 1518.27 Q1231.61 1513.66 1237.42 1513.66 Z" fill="#000000" fill-rule="nonzero" fill-opacity="1"></path><path clip-path="url(#clip470)" d="M1720.48 1530.21 Q1723.83 1530.93 1725.71 1533.2 Q1727.6 1535.47 1727.6 1538.8 Q1727.6 1543.92 1724.09 1546.72 Q1720.57 1549.52 1714.09 1549.52 Q1711.91 1549.52 1709.6 1549.08 Q1707.3 1548.66 1704.85 1547.81 L1704.85 1543.29 Q1706.79 1544.43 1709.11 1545.01 Q1711.42 1545.58 1713.95 1545.58 Q1718.35 1545.58 1720.64 1543.85 Q1722.95 1542.11 1722.95 1538.8 Q1722.95 1535.75 1720.8 1534.03 Q1718.67 1532.3 1714.85 1532.3 L1710.82 1532.3 L1710.82 1528.45 L1715.04 1528.45 Q1718.48 1528.45 1720.31 1527.09 Q1722.14 1525.7 1722.14 1523.11 Q1722.14 1520.45 1720.24 1519.03 Q1718.37 1517.6 1714.85 1517.6 Q1712.93 1517.6 1710.73 1518.01 Q1708.53 1518.43 1705.89 1519.31 L1705.89 1515.14 Q1708.55 1514.4 1710.87 1514.03 Q1713.21 1513.66 1715.27 1513.66 Q1720.59 1513.66 1723.69 1516.09 Q1726.79 1518.5 1726.79 1522.62 Q1726.79 1525.49 1725.15 1527.48 Q1723.51 1529.45 1720.48 1530.21 Z" fill="#000000" fill-rule="nonzero" fill-opacity="1"></path><path clip-path="url(#clip470)" d="M1746.47 1517.37 Q1742.86 1517.37 1741.03 1520.93 Q1739.23 1524.47 1739.23 1531.6 Q1739.23 1538.71 1741.03 1542.27 Q1742.86 1545.82 1746.47 1545.82 Q1750.1 1545.82 1751.91 1542.27 Q1753.74 1538.71 1753.74 1531.6 Q1753.74 1524.47 1751.91 1520.93 Q1750.1 1517.37 1746.47 1517.37 M1746.47 1513.66 Q1752.28 1513.66 1755.34 1518.27 Q1758.41 1522.85 1758.41 1531.6 Q1758.41 1540.33 1755.34 1544.94 Q1752.28 1549.52 1746.47 1549.52 Q1740.66 1549.52 1737.58 1544.94 Q1734.53 1540.33 1734.53 1531.6 Q1734.53 1522.85 1737.58 1518.27 Q1740.66 1513.66 1746.47 1513.66 Z" fill="#000000" fill-rule="nonzero" fill-opacity="1"></path><path clip-path="url(#clip470)" d="M2228.92 1518.36 L2217.12 1536.81 L2228.92 1536.81 L2228.92 1518.36 M2227.69 1514.29 L2233.57 1514.29 L2233.57 1536.81 L2238.5 1536.81 L2238.5 1540.7 L2233.57 1540.7 L2233.57 1548.85 L2228.92 1548.85 L2228.92 1540.7 L2213.32 1540.7 L2213.32 1536.19 L2227.69 1514.29 Z" fill="#000000" fill-rule="nonzero" fill-opacity="1"></path><path clip-path="url(#clip470)" d="M2256.24 1517.37 Q2252.63 1517.37 2250.8 1520.93 Q2248.99 1524.47 2248.99 1531.6 Q2248.99 1538.71 2250.8 1542.27 Q2252.63 1545.82 2256.24 1545.82 Q2259.87 1545.82 2261.68 1542.27 Q2263.5 1538.71 2263.5 1531.6 Q2263.5 1524.47 2261.68 1520.93 Q2259.87 1517.37 2256.24 1517.37 M2256.24 1513.66 Q2262.05 1513.66 2265.1 1518.27 Q2268.18 1522.85 2268.18 1531.6 Q2268.18 1540.33 2265.1 1544.94 Q2262.05 1549.52 2256.24 1549.52 Q2250.43 1549.52 2247.35 1544.94 Q2244.29 1540.33 2244.29 1531.6 Q2244.29 1522.85 2247.35 1518.27 Q2250.43 1513.66 2256.24 1513.66 Z" fill="#000000" fill-rule="nonzero" fill-opacity="1"></path><polyline clip-path="url(#clip472)" style="stroke:#000000; stroke-linecap:round; stroke-linejoin:round; stroke-width:2; stroke-opacity:0.1; fill:none" points="194.098,1337.1 2352.76,1337.1 "></polyline>
<polyline clip-path="url(#clip472)" style="stroke:#000000; stroke-linecap:round; stroke-linejoin:round; stroke-width:2; stroke-opacity:0.1; fill:none" points="194.098,1011.24 2352.76,1011.24 "></polyline>
<polyline clip-path="url(#clip472)" style="stroke:#000000; stroke-linecap:round; stroke-linejoin:round; stroke-width:2; stroke-opacity:0.1; fill:none" points="194.098,685.382 2352.76,685.382 "></polyline>
<polyline clip-path="url(#clip472)" style="stroke:#000000; stroke-linecap:round; stroke-linejoin:round; stroke-width:2; stroke-opacity:0.1; fill:none" points="194.098,359.524 2352.76,359.524 "></polyline>
<polyline clip-path="url(#clip470)" style="stroke:#000000; stroke-linecap:round; stroke-linejoin:round; stroke-width:4; stroke-opacity:1; fill:none" points="194.098,1486.45 194.098,47.2441 "></polyline>
<polyline clip-path="url(#clip470)" style="stroke:#000000; stroke-linecap:round; stroke-linejoin:round; stroke-width:4; stroke-opacity:1; fill:none" points="194.098,1337.1 212.996,1337.1 "></polyline>
<polyline clip-path="url(#clip470)" style="stroke:#000000; stroke-linecap:round; stroke-linejoin:round; stroke-width:4; stroke-opacity:1; fill:none" points="194.098,1011.24 212.996,1011.24 "></polyline>
<polyline clip-path="url(#clip470)" style="stroke:#000000; stroke-linecap:round; stroke-linejoin:round; stroke-width:4; stroke-opacity:1; fill:none" points="194.098,685.382 212.996,685.382 "></polyline>
<polyline clip-path="url(#clip470)" style="stroke:#000000; stroke-linecap:round; stroke-linejoin:round; stroke-width:4; stroke-opacity:1; fill:none" points="194.098,359.524 212.996,359.524 "></polyline>
<path clip-path="url(#clip470)" d="M51.3393 1337.55 L81.0151 1337.55 L81.0151 1341.48 L51.3393 1341.48 L51.3393 1337.55 Z" fill="#000000" fill-rule="nonzero" fill-opacity="1"></path><path clip-path="url(#clip470)" d="M101.108 1322.9 Q97.4965 1322.9 95.6678 1326.46 Q93.8623 1330 93.8623 1337.13 Q93.8623 1344.24 95.6678 1347.8 Q97.4965 1351.34 101.108 1351.34 Q104.742 1351.34 106.547 1347.8 Q108.376 1344.24 108.376 1337.13 Q108.376 1330 106.547 1326.46 Q104.742 1322.9 101.108 1322.9 M101.108 1319.19 Q106.918 1319.19 109.973 1323.8 Q113.052 1328.38 113.052 1337.13 Q113.052 1345.86 109.973 1350.46 Q106.918 1355.05 101.108 1355.05 Q95.2974 1355.05 92.2188 1350.46 Q89.1632 1345.86 89.1632 1337.13 Q89.1632 1328.38 92.2188 1323.8 Q95.2974 1319.19 101.108 1319.19 Z" fill="#000000" fill-rule="nonzero" fill-opacity="1"></path><path clip-path="url(#clip470)" d="M121.27 1348.5 L126.154 1348.5 L126.154 1354.38 L121.27 1354.38 L121.27 1348.5 Z" fill="#000000" fill-rule="nonzero" fill-opacity="1"></path><path clip-path="url(#clip470)" d="M136.478 1353.66 L136.478 1349.4 Q138.237 1350.23 140.043 1350.67 Q141.848 1351.11 143.584 1351.11 Q148.214 1351.11 150.644 1348.01 Q153.098 1344.89 153.445 1338.54 Q152.103 1340.53 150.043 1341.6 Q147.982 1342.66 145.482 1342.66 Q140.297 1342.66 137.265 1339.54 Q134.256 1336.39 134.256 1330.95 Q134.256 1325.63 137.404 1322.41 Q140.552 1319.19 145.783 1319.19 Q151.779 1319.19 154.927 1323.8 Q158.098 1328.38 158.098 1337.13 Q158.098 1345.3 154.209 1350.19 Q150.343 1355.05 143.793 1355.05 Q142.033 1355.05 140.228 1354.7 Q138.422 1354.35 136.478 1353.66 M145.783 1339.01 Q148.931 1339.01 150.76 1336.85 Q152.612 1334.7 152.612 1330.95 Q152.612 1327.22 150.76 1325.07 Q148.931 1322.9 145.783 1322.9 Q142.635 1322.9 140.783 1325.07 Q138.955 1327.22 138.955 1330.95 Q138.955 1334.7 140.783 1336.85 Q142.635 1339.01 145.783 1339.01 Z" fill="#000000" fill-rule="nonzero" fill-opacity="1"></path><path clip-path="url(#clip470)" d="M50.9921 1011.69 L80.6679 1011.69 L80.6679 1015.63 L50.9921 1015.63 L50.9921 1011.69 Z" fill="#000000" fill-rule="nonzero" fill-opacity="1"></path><path clip-path="url(#clip470)" d="M100.76 997.038 Q97.1493 997.038 95.3206 1000.6 Q93.515 1004.14 93.515 1011.27 Q93.515 1018.38 95.3206 1021.95 Q97.1493 1025.49 100.76 1025.49 Q104.395 1025.49 106.2 1021.95 Q108.029 1018.38 108.029 1011.27 Q108.029 1004.14 106.2 1000.6 Q104.395 997.038 100.76 997.038 M100.76 993.334 Q106.571 993.334 109.626 997.941 Q112.705 1002.52 112.705 1011.27 Q112.705 1020 109.626 1024.61 Q106.571 1029.19 100.76 1029.19 Q94.9502 1029.19 91.8715 1024.61 Q88.816 1020 88.816 1011.27 Q88.816 1002.52 91.8715 997.941 Q94.9502 993.334 100.76 993.334 Z" fill="#000000" fill-rule="nonzero" fill-opacity="1"></path><path clip-path="url(#clip470)" d="M120.922 1022.64 L125.807 1022.64 L125.807 1028.52 L120.922 1028.52 L120.922 1022.64 Z" fill="#000000" fill-rule="nonzero" fill-opacity="1"></path><path clip-path="url(#clip470)" d="M146.57 1009.38 Q143.422 1009.38 141.57 1011.53 Q139.742 1013.68 139.742 1017.43 Q139.742 1021.16 141.57 1023.33 Q143.422 1025.49 146.57 1025.49 Q149.718 1025.49 151.547 1023.33 Q153.399 1021.16 153.399 1017.43 Q153.399 1013.68 151.547 1011.53 Q149.718 1009.38 146.57 1009.38 M155.853 994.723 L155.853 998.982 Q154.093 998.149 152.288 997.709 Q150.505 997.269 148.746 997.269 Q144.117 997.269 141.663 1000.39 Q139.232 1003.52 138.885 1009.84 Q140.251 1007.82 142.311 1006.76 Q144.371 1005.67 146.848 1005.67 Q152.056 1005.67 155.066 1008.84 Q158.098 1011.99 158.098 1017.43 Q158.098 1022.76 154.95 1025.97 Q151.802 1029.19 146.57 1029.19 Q140.575 1029.19 137.404 1024.61 Q134.232 1020 134.232 1011.27 Q134.232 1003.08 138.121 998.218 Q142.01 993.334 148.561 993.334 Q150.32 993.334 152.103 993.681 Q153.908 994.029 155.853 994.723 Z" fill="#000000" fill-rule="nonzero" fill-opacity="1"></path><path clip-path="url(#clip470)" d="M51.8023 685.833 L81.4781 685.833 L81.4781 689.768 L51.8023 689.768 L51.8023 685.833 Z" fill="#000000" fill-rule="nonzero" fill-opacity="1"></path><path clip-path="url(#clip470)" d="M101.571 671.18 Q97.9595 671.18 96.1308 674.745 Q94.3252 678.287 94.3252 685.416 Q94.3252 692.523 96.1308 696.088 Q97.9595 699.629 101.571 699.629 Q105.205 699.629 107.01 696.088 Q108.839 692.523 108.839 685.416 Q108.839 678.287 107.01 674.745 Q105.205 671.18 101.571 671.18 M101.571 667.477 Q107.381 667.477 110.436 672.083 Q113.515 676.666 113.515 685.416 Q113.515 694.143 110.436 698.75 Q107.381 703.333 101.571 703.333 Q95.7604 703.333 92.6817 698.75 Q89.6262 694.143 89.6262 685.416 Q89.6262 676.666 92.6817 672.083 Q95.7604 667.477 101.571 667.477 Z" fill="#000000" fill-rule="nonzero" fill-opacity="1"></path><path clip-path="url(#clip470)" d="M121.732 696.782 L126.617 696.782 L126.617 702.662 L121.732 702.662 L121.732 696.782 Z" fill="#000000" fill-rule="nonzero" fill-opacity="1"></path><path clip-path="url(#clip470)" d="M150.968 684.027 Q154.325 684.745 156.2 687.014 Q158.098 689.282 158.098 692.615 Q158.098 697.731 154.58 700.532 Q151.061 703.333 144.58 703.333 Q142.404 703.333 140.089 702.893 Q137.797 702.476 135.344 701.62 L135.344 697.106 Q137.288 698.24 139.603 698.819 Q141.918 699.398 144.441 699.398 Q148.839 699.398 151.13 697.662 Q153.445 695.926 153.445 692.615 Q153.445 689.56 151.293 687.847 Q149.163 686.111 145.343 686.111 L141.316 686.111 L141.316 682.268 L145.529 682.268 Q148.978 682.268 150.806 680.902 Q152.635 679.514 152.635 676.921 Q152.635 674.259 150.737 672.847 Q148.862 671.412 145.343 671.412 Q143.422 671.412 141.223 671.828 Q139.024 672.245 136.385 673.125 L136.385 668.958 Q139.047 668.217 141.362 667.847 Q143.7 667.477 145.76 667.477 Q151.084 667.477 154.186 669.907 Q157.288 672.315 157.288 676.435 Q157.288 679.305 155.644 681.296 Q154.001 683.264 150.968 684.027 Z" fill="#000000" fill-rule="nonzero" fill-opacity="1"></path><path clip-path="url(#clip470)" d="M100.922 345.323 Q97.3113 345.323 95.4826 348.888 Q93.6771 352.429 93.6771 359.559 Q93.6771 366.665 95.4826 370.23 Q97.3113 373.772 100.922 373.772 Q104.557 373.772 106.362 370.23 Q108.191 366.665 108.191 359.559 Q108.191 352.429 106.362 348.888 Q104.557 345.323 100.922 345.323 M100.922 341.619 Q106.733 341.619 109.788 346.226 Q112.867 350.809 112.867 359.559 Q112.867 368.286 109.788 372.892 Q106.733 377.475 100.922 377.475 Q95.1123 377.475 92.0336 372.892 Q88.978 368.286 88.978 359.559 Q88.978 350.809 92.0336 346.226 Q95.1123 341.619 100.922 341.619 Z" fill="#000000" fill-rule="nonzero" fill-opacity="1"></path><path clip-path="url(#clip470)" d="M121.084 370.925 L125.969 370.925 L125.969 376.804 L121.084 376.804 L121.084 370.925 Z" fill="#000000" fill-rule="nonzero" fill-opacity="1"></path><path clip-path="url(#clip470)" d="M146.154 345.323 Q142.543 345.323 140.714 348.888 Q138.908 352.429 138.908 359.559 Q138.908 366.665 140.714 370.23 Q142.543 373.772 146.154 373.772 Q149.788 373.772 151.593 370.23 Q153.422 366.665 153.422 359.559 Q153.422 352.429 151.593 348.888 Q149.788 345.323 146.154 345.323 M146.154 341.619 Q151.964 341.619 155.019 346.226 Q158.098 350.809 158.098 359.559 Q158.098 368.286 155.019 372.892 Q151.964 377.475 146.154 377.475 Q140.343 377.475 137.265 372.892 Q134.209 368.286 134.209 359.559 Q134.209 350.809 137.265 346.226 Q140.343 341.619 146.154 341.619 Z" fill="#000000" fill-rule="nonzero" fill-opacity="1"></path><polyline clip-path="url(#clip472)" style="stroke:#009af9; stroke-linecap:round; stroke-linejoin:round; stroke-width:4; stroke-opacity:1; fill:none" points="255.192,87.9763 306.104,1377.83 357.016,491.055 407.927,1429.79 458.839,391.146 509.751,1444.8 560.663,361.365 611.574,1445.71 662.486,359.53 713.398,1445.72 764.31,359.524 815.221,1445.72 866.133,359.524 917.045,1445.72 967.957,359.524 1018.87,1445.72 1069.78,359.524 1120.69,1445.72 1171.6,359.524 1222.52,1445.72 1273.43,359.524 1324.34,1445.72 1375.25,359.524 1426.16,1445.72 1477.07,359.524 1527.99,1445.72 1578.9,359.524 1629.81,1445.72 1680.72,359.524 1731.63,1445.72 1782.54,359.524 1833.46,1445.72 1884.37,359.524 1935.28,1445.72 1986.19,359.524 2037.1,1445.72 2088.01,359.524 2138.93,1445.72 2189.84,359.524 2240.75,1445.72 2291.66,359.524 "></polyline>
<path clip-path="url(#clip470)" d="M2012.5 198.898 L2280.8 198.898 L2280.8 95.2176 L2012.5 95.2176  Z" fill="#ffffff" fill-rule="evenodd" fill-opacity="1"></path>
<polyline clip-path="url(#clip470)" style="stroke:#000000; stroke-linecap:round; stroke-linejoin:round; stroke-width:4; stroke-opacity:1; fill:none" points="2012.5,198.898 2280.8,198.898 2280.8,95.2176 2012.5,95.2176 2012.5,198.898 "></polyline>
<polyline clip-path="url(#clip470)" style="stroke:#009af9; stroke-linecap:round; stroke-linejoin:round; stroke-width:4; stroke-opacity:1; fill:none" points="2036.49,147.058 2180.4,147.058 "></polyline>
<path clip-path="url(#clip470)" d="M2218.23 166.745 Q2216.42 171.375 2214.71 172.787 Q2213 174.199 2210.13 174.199 L2206.72 174.199 L2206.72 170.634 L2209.22 170.634 Q2210.98 170.634 2211.95 169.8 Q2212.93 168.967 2214.11 165.865 L2214.87 163.921 L2204.39 138.412 L2208.9 138.412 L2217 158.689 L2225.1 138.412 L2229.62 138.412 L2218.23 166.745 Z" fill="#000000" fill-rule="nonzero" fill-opacity="1"></path><path clip-path="url(#clip470)" d="M2236.91 160.402 L2244.55 160.402 L2244.55 134.037 L2236.24 135.703 L2236.24 131.444 L2244.5 129.778 L2249.18 129.778 L2249.18 160.402 L2256.82 160.402 L2256.82 164.338 L2236.91 164.338 L2236.91 160.402 Z" fill="#000000" fill-rule="nonzero" fill-opacity="1"></path></svg>