<svg xmlns="http://www.w3.org/2000/svg" xmlns:xlink="http://www.w3.org/1999/xlink" width="600" height="400" viewBox="0 0 2400 1600">
<defs>
  <clipPath id="clip310">
    <rect x="0" y="0" width="2400" height="1600"></rect>
  </clipPath>
</defs>
<path clip-path="url(#clip310)" d="M0 1600 L2400 1600 L2400 0 L0 0  Z" fill="#ffffff" fill-rule="evenodd" fill-opacity="1"></path>
<defs>
  <clipPath id="clip311">
    <rect x="480" y="0" width="1681" height="1600"></rect>
  </clipPath>
</defs>
<path clip-path="url(#clip310)" d="M147.478 1486.45 L2352.76 1486.45 L2352.76 47.2441 L147.478 47.2441  Z" fill="#ffffff" fill-rule="evenodd" fill-opacity="1"></path>
<defs>
  <clipPath id="clip312">
    <rect x="147" y="47" width="2206" height="1440"></rect>
  </clipPath>
</defs>
<polyline clip-path="url(#clip312)" style="stroke:#000000; stroke-linecap:round; stroke-linejoin:round; stroke-width:2; stroke-opacity:0.1; fill:none" points="157.88,1486.45 157.88,47.2441 "></polyline>
<polyline clip-path="url(#clip312)" style="stroke:#000000; stroke-linecap:round; stroke-linejoin:round; stroke-width:2; stroke-opacity:0.1; fill:none" points="677.993,1486.45 677.993,47.2441 "></polyline>
<polyline clip-path="url(#clip312)" style="stroke:#000000; stroke-linecap:round; stroke-linejoin:round; stroke-width:2; stroke-opacity:0.1; fill:none" points="1198.11,1486.45 1198.11,47.2441 "></polyline>
<polyline clip-path="url(#clip312)" style="stroke:#000000; stroke-linecap:round; stroke-linejoin:round; stroke-width:2; stroke-opacity:0.1; fill:none" points="1718.22,1486.45 1718.22,47.2441 "></polyline>
<polyline clip-path="url(#clip312)" style="stroke:#000000; stroke-linecap:round; stroke-linejoin:round; stroke-width:2; stroke-opacity:0.1; fill:none" points="2238.33,1486.45 2238.33,47.2441 "></polyline>
<polyline clip-path="url(#clip310)" style="stroke:#000000; stroke-linecap:round; stroke-linejoin:round; stroke-width:4; stroke-opacity:1; fill:none" points="147.478,1486.45 2352.76,1486.45 "></polyline>
<polyline clip-path="url(#clip310)" style="stroke:#000000; stroke-linecap:round; stroke-linejoin:round; stroke-width:4; stroke-opacity:1; fill:none" points="157.88,1486.45 157.88,1467.55 "></polyline>
<polyline clip-path="url(#clip310)" style="stroke:#000000; stroke-linecap:round; stroke-linejoin:round; stroke-width:4; stroke-opacity:1; fill:none" points="677.993,1486.45 677.993,1467.55 "></polyline>
<polyline clip-path="url(#clip310)" style="stroke:#000000; stroke-linecap:round; stroke-linejoin:round; stroke-width:4; stroke-opacity:1; fill:none" points="1198.11,1486.45 1198.11,1467.55 "></polyline>
<polyline clip-path="url(#clip310)" style="stroke:#000000; stroke-linecap:round; stroke-linejoin:round; stroke-width:4; stroke-opacity:1; fill:none" points="1718.22,1486.45 1718.22,1467.55 "></polyline>
<polyline clip-path="url(#clip310)" style="stroke:#000000; stroke-linecap:round; stroke-linejoin:round; stroke-width:4; stroke-opacity:1; fill:none" points="2238.33,1486.45 2238.33,1467.55 "></polyline>
<path clip-path="url(#clip310)" d="M157.88 1517.37 Q154.269 1517.37 152.44 1520.93 Q150.635 1524.47 150.635 1531.6 Q150.635 1538.71 152.44 1542.27 Q154.269 1545.82 157.88 1545.82 Q161.514 1545.82 163.32 1542.27 Q165.149 1538.71 165.149 1531.6 Q165.149 1524.47 163.32 1520.93 Q161.514 1517.37 157.88 1517.37 M157.88 1513.66 Q163.69 1513.66 166.746 1518.27 Q169.825 1522.85 169.825 1531.6 Q169.825 1540.33 166.746 1544.94 Q163.69 1549.52 157.88 1549.52 Q152.07 1549.52 148.991 1544.94 Q145.936 1540.33 145.936 1531.6 Q145.936 1522.85 148.991 1518.27 Q152.07 1513.66 157.88 1513.66 Z" fill="#000000" fill-rule="nonzero" fill-opacity="1"></path><path clip-path="url(#clip310)" d="M652.681 1544.91 L660.319 1544.91 L660.319 1518.55 L652.009 1520.21 L652.009 1515.95 L660.273 1514.29 L664.949 1514.29 L664.949 1544.91 L672.588 1544.91 L672.588 1548.85 L652.681 1548.85 L652.681 1544.91 Z" fill="#000000" fill-rule="nonzero" fill-opacity="1"></path><path clip-path="url(#clip310)" d="M692.032 1517.37 Q688.421 1517.37 686.592 1520.93 Q684.787 1524.47 684.787 1531.6 Q684.787 1538.71 686.592 1542.27 Q688.421 1545.82 692.032 1545.82 Q695.666 1545.82 697.472 1542.27 Q699.301 1538.71 699.301 1531.6 Q699.301 1524.47 697.472 1520.93 Q695.666 1517.37 692.032 1517.37 M692.032 1513.66 Q697.842 1513.66 700.898 1518.27 Q703.977 1522.85 703.977 1531.6 Q703.977 1540.33 700.898 1544.94 Q697.842 1549.52 692.032 1549.52 Q686.222 1549.52 683.143 1544.94 Q680.088 1540.33 680.088 1531.6 Q680.088 1522.85 683.143 1518.27 Q686.222 1513.66 692.032 1513.66 Z" fill="#000000" fill-rule="nonzero" fill-opacity="1"></path><path clip-path="url(#clip310)" d="M1176.88 1544.91 L1193.2 1544.91 L1193.2 1548.85 L1171.25 1548.85 L1171.25 1544.91 Q1173.92 1542.16 1178.5 1537.53 Q1183.11 1532.88 1184.29 1531.53 Q1186.53 1529.01 1187.41 1527.27 Q1188.31 1525.51 1188.31 1523.82 Q1188.31 1521.07 1186.37 1519.33 Q1184.45 1517.6 1181.35 1517.6 Q1179.15 1517.6 1176.69 1518.36 Q1174.26 1519.13 1171.49 1520.68 L1171.49 1515.95 Q1174.31 1514.82 1176.76 1514.24 Q1179.22 1513.66 1181.25 1513.66 Q1186.62 1513.66 1189.82 1516.35 Q1193.01 1519.03 1193.01 1523.52 Q1193.01 1525.65 1192.2 1527.57 Q1191.42 1529.47 1189.31 1532.07 Q1188.73 1532.74 1185.63 1535.95 Q1182.53 1539.15 1176.88 1544.91 Z" fill="#000000" fill-rule="nonzero" fill-opacity="1"></path><path clip-path="url(#clip310)" d="M1213.01 1517.37 Q1209.4 1517.37 1207.57 1520.93 Q1205.77 1524.47 1205.77 1531.6 Q1205.77 1538.71 1207.57 1542.27 Q1209.4 1545.82 1213.01 1545.82 Q1216.65 1545.82 1218.45 1542.27 Q1220.28 1538.71 1220.28 1531.6 Q1220.28 1524.47 1218.45 1520.93 Q1216.65 1517.37 1213.01 1517.37 M1213.01 1513.66 Q1218.82 1513.66 1221.88 1518.27 Q1224.96 1522.85 1224.96 1531.6 Q1224.96 1540.33 1221.88 1544.94 Q1218.82 1549.52 1213.01 1549.52 Q1207.2 1549.52 1204.12 1544.94 Q1201.07 1540.33 1201.07 1531.6 Q1201.07 1522.85 1204.12 1518.27 Q1207.2 1513.66 1213.01 1513.66 Z" fill="#000000" fill-rule="nonzero" fill-opacity="1"></path><path clip-path="url(#clip310)" d="M1707.06 1530.21 Q1710.42 1530.93 1712.29 1533.2 Q1714.19 1535.47 1714.19 1538.8 Q1714.19 1543.92 1710.67 1546.72 Q1707.15 1549.52 1700.67 1549.52 Q1698.5 1549.52 1696.18 1549.08 Q1693.89 1548.66 1691.44 1547.81 L1691.44 1543.29 Q1693.38 1544.43 1695.7 1545.01 Q1698.01 1545.58 1700.53 1545.58 Q1704.93 1545.58 1707.22 1543.85 Q1709.54 1542.11 1709.54 1538.8 Q1709.54 1535.75 1707.39 1534.03 Q1705.26 1532.3 1701.44 1532.3 L1697.41 1532.3 L1697.41 1528.45 L1701.62 1528.45 Q1705.07 1528.45 1706.9 1527.09 Q1708.73 1525.7 1708.73 1523.11 Q1708.73 1520.45 1706.83 1519.03 Q1704.95 1517.6 1701.44 1517.6 Q1699.51 1517.6 1697.32 1518.01 Q1695.12 1518.43 1692.48 1519.31 L1692.48 1515.14 Q1695.14 1514.4 1697.45 1514.03 Q1699.79 1513.66 1701.85 1513.66 Q1707.18 1513.66 1710.28 1516.09 Q1713.38 1518.5 1713.38 1522.62 Q1713.38 1525.49 1711.74 1527.48 Q1710.09 1529.45 1707.06 1530.21 Z" fill="#000000" fill-rule="nonzero" fill-opacity="1"></path><path clip-path="url(#clip310)" d="M1733.06 1517.37 Q1729.45 1517.37 1727.62 1520.93 Q1725.81 1524.47 1725.81 1531.6 Q1725.81 1538.71 1727.62 1542.27 Q1729.45 1545.82 1733.06 1545.82 Q1736.69 1545.82 1738.5 1542.27 Q1740.32 1538.71 1740.32 1531.6 Q1740.32 1524.47 1738.5 1520.93 Q1736.69 1517.37 1733.06 1517.37 M1733.06 1513.66 Q1738.87 1513.66 1741.92 1518.27 Q1745 1522.85 1745 1531.6 Q1745 1540.33 1741.92 1544.94 Q1738.87 1549.52 1733.06 1549.52 Q1727.25 1549.52 1724.17 1544.94 Q1721.11 1540.33 1721.11 1531.6 Q1721.11 1522.85 1724.17 1518.27 Q1727.25 1513.66 1733.06 1513.66 Z" fill="#000000" fill-rule="nonzero" fill-opacity="1"></path><path clip-path="url(#clip310)" d="M2226.5 1518.36 L2214.7 1536.81 L2226.5 1536.81 L2226.5 1518.36 M2225.28 1514.29 L2231.16 1514.29 L2231.16 1536.81 L2236.09 1536.81 L2236.09 1540.7 L2231.16 1540.7 L2231.16 1548.85 L2226.5 1548.85 L2226.5 1540.7 L2210.9 1540.7 L2210.9 1536.19 L2225.28 1514.29 Z" fill="#000000" fill-rule="nonzero" fill-opacity="1"></path><path clip-path="url(#clip310)" d="M2253.82 1517.37 Q2250.21 1517.37 2248.38 1520.93 Q2246.57 1524.47 2246.57 1531.6 Q2246.57 1538.71 2248.38 1542.27 Q2250.21 1545.82 2253.82 1545.82 Q2257.45 1545.82 2259.26 1542.27 Q2261.09 1538.71 2261.09 1531.6 Q2261.09 1524.47 2259.26 1520.93 Q2257.45 1517.37 2253.82 1517.37 M2253.82 1513.66 Q2259.63 1513.66 2262.68 1518.27 Q2265.76 1522.85 2265.76 1531.6 Q2265.76 1540.33 2262.68 1544.94 Q2259.63 1549.52 2253.82 1549.52 Q2248.01 1549.52 2244.93 1544.94 Q2241.87 1540.33 2241.87 1531.6 Q2241.87 1522.85 2244.93 1518.27 Q2248.01 1513.66 2253.82 1513.66 Z" fill="#000000" fill-rule="nonzero" fill-opacity="1"></path><polyline clip-path="url(#clip312)" style="stroke:#000000; stroke-linecap:round; stroke-linejoin:round; stroke-width:2; stroke-opacity:0.1; fill:none" points="147.478,1461.16 2352.76,1461.16 "></polyline>
<polyline clip-path="url(#clip312)" style="stroke:#000000; stroke-linecap:round; stroke-linejoin:round; stroke-width:2; stroke-opacity:0.1; fill:none" points="147.478,1117.86 2352.76,1117.86 "></polyline>
<polyline clip-path="url(#clip312)" style="stroke:#000000; stroke-linecap:round; stroke-linejoin:round; stroke-width:2; stroke-opacity:0.1; fill:none" points="147.478,774.569 2352.76,774.569 "></polyline>
<polyline clip-path="url(#clip312)" style="stroke:#000000; stroke-linecap:round; stroke-linejoin:round; stroke-width:2; stroke-opacity:0.1; fill:none" points="147.478,431.272 2352.76,431.272 "></polyline>
<polyline clip-path="url(#clip312)" style="stroke:#000000; stroke-linecap:round; stroke-linejoin:round; stroke-width:2; stroke-opacity:0.1; fill:none" points="147.478,87.9763 2352.76,87.9763 "></polyline>
<polyline clip-path="url(#clip310)" style="stroke:#000000; stroke-linecap:round; stroke-linejoin:round; stroke-width:4; stroke-opacity:1; fill:none" points="147.478,1486.45 147.478,47.2441 "></polyline>
<polyline clip-path="url(#clip310)" style="stroke:#000000; stroke-linecap:round; stroke-linejoin:round; stroke-width:4; stroke-opacity:1; fill:none" points="147.478,1461.16 166.376,1461.16 "></polyline>
<polyline clip-path="url(#clip310)" style="stroke:#000000; stroke-linecap:round; stroke-linejoin:round; stroke-width:4; stroke-opacity:1; fill:none" points="147.478,1117.86 166.376,1117.86 "></polyline>
<polyline clip-path="url(#clip310)" style="stroke:#000000; stroke-linecap:round; stroke-linejoin:round; stroke-width:4; stroke-opacity:1; fill:none" points="147.478,774.569 166.376,774.569 "></polyline>
<polyline clip-path="url(#clip310)" style="stroke:#000000; stroke-linecap:round; stroke-linejoin:round; stroke-width:4; stroke-opacity:1; fill:none" points="147.478,431.272 166.376,431.272 "></polyline>
<polyline clip-path="url(#clip310)" style="stroke:#000000; stroke-linecap:round; stroke-linejoin:round; stroke-width:4; stroke-opacity:1; fill:none" points="147.478,87.9763 166.376,87.9763 "></polyline>
<path clip-path="url(#clip310)" d="M51.3625 1461.61 L81.0383 1461.61 L81.0383 1465.55 L51.3625 1465.55 L51.3625 1461.61 Z" fill="#000000" fill-rule="nonzero" fill-opacity="1"></path><path clip-path="url(#clip310)" d="M95.1586 1474.51 L111.478 1474.51 L111.478 1478.44 L89.5336 1478.44 L89.5336 1474.51 Q92.1956 1471.75 96.7789 1467.12 Q101.385 1462.47 102.566 1461.13 Q104.811 1458.6 105.691 1456.87 Q106.594 1455.11 106.594 1453.42 Q106.594 1450.66 104.649 1448.93 Q102.728 1447.19 99.6261 1447.19 Q97.4271 1447.19 94.9734 1447.95 Q92.5428 1448.72 89.7651 1450.27 L89.7651 1445.55 Q92.5891 1444.41 95.0428 1443.83 Q97.4965 1443.26 99.5335 1443.26 Q104.904 1443.26 108.098 1445.94 Q111.293 1448.63 111.293 1453.12 Q111.293 1455.25 110.483 1457.17 Q109.696 1459.07 107.589 1461.66 Q107.01 1462.33 103.909 1465.55 Q100.807 1468.74 95.1586 1474.51 Z" fill="#000000" fill-rule="nonzero" fill-opacity="1"></path><path clip-path="url(#clip310)" d="M50.9921 1118.32 L80.6679 1118.32 L80.6679 1122.25 L50.9921 1122.25 L50.9921 1118.32 Z" fill="#000000" fill-rule="nonzero" fill-opacity="1"></path><path clip-path="url(#clip310)" d="M91.5706 1131.21 L99.2095 1131.21 L99.2095 1104.84 L90.8993 1106.51 L90.8993 1102.25 L99.1632 1100.58 L103.839 1100.58 L103.839 1131.21 L111.478 1131.21 L111.478 1135.14 L91.5706 1135.14 L91.5706 1131.21 Z" fill="#000000" fill-rule="nonzero" fill-opacity="1"></path><path clip-path="url(#clip310)" d="M99.5335 760.367 Q95.9224 760.367 94.0937 763.932 Q92.2882 767.474 92.2882 774.603 Q92.2882 781.71 94.0937 785.274 Q95.9224 788.816 99.5335 788.816 Q103.168 788.816 104.973 785.274 Q106.802 781.71 106.802 774.603 Q106.802 767.474 104.973 763.932 Q103.168 760.367 99.5335 760.367 M99.5335 756.664 Q105.344 756.664 108.399 761.27 Q111.478 765.853 111.478 774.603 Q111.478 783.33 108.399 787.937 Q105.344 792.52 99.5335 792.52 Q93.7234 792.52 90.6447 787.937 Q87.5892 783.33 87.5892 774.603 Q87.5892 765.853 90.6447 761.27 Q93.7234 756.664 99.5335 756.664 Z" fill="#000000" fill-rule="nonzero" fill-opacity="1"></path><path clip-path="url(#clip310)" d="M91.5706 444.617 L99.2095 444.617 L99.2095 418.252 L90.8993 419.918 L90.8993 415.659 L99.1632 413.992 L103.839 413.992 L103.839 444.617 L111.478 444.617 L111.478 448.552 L91.5706 448.552 L91.5706 444.617 Z" fill="#000000" fill-rule="nonzero" fill-opacity="1"></path><path clip-path="url(#clip310)" d="M95.1586 101.321 L111.478 101.321 L111.478 105.256 L89.5336 105.256 L89.5336 101.321 Q92.1956 98.5665 96.7789 93.9369 Q101.385 89.2841 102.566 87.9416 Q104.811 85.4184 105.691 83.6823 Q106.594 81.9231 106.594 80.2333 Q106.594 77.4786 104.649 75.7425 Q102.728 74.0064 99.6261 74.0064 Q97.4271 74.0064 94.9734 74.7703 Q92.5428 75.5342 89.7651 77.0851 L89.7651 72.3629 Q92.5891 71.2287 95.0428 70.65 Q97.4965 70.0713 99.5335 70.0713 Q104.904 70.0713 108.098 72.7565 Q111.293 75.4416 111.293 79.9323 Q111.293 82.062 110.483 83.9832 Q109.696 85.8814 107.589 88.474 Q107.01 89.1453 103.909 92.3628 Q100.807 95.5573 95.1586 101.321 Z" fill="#000000" fill-rule="nonzero" fill-opacity="1"></path><polyline clip-path="url(#clip312)" style="stroke:#009af9; stroke-linecap:round; stroke-linejoin:round; stroke-width:4; stroke-opacity:1; fill:none" points="209.891,87.9763 261.903,87.9763 313.914,87.9763 365.925,87.9763 417.937,87.9763 469.948,87.9763 521.959,87.9763 573.97,87.9763 625.982,87.9763 677.993,87.9763 730.004,87.9763 782.015,87.9763 834.027,87.9763 886.038,87.9765 938.049,87.9772 990.061,87.98 1042.07,87.991 1094.08,88.0352 1146.09,88.212 1198.11,88.919 1250.12,91.7444 1302.13,103.007 1354.14,147.443 1406.15,315.54 1458.16,847.385 1510.17,1445.72 1562.18,149.062 1614.2,321.448 1666.21,863.083 1718.22,1438.34 1770.23,177.748 1822.24,423.588 1874.25,1102.32 1926.26,1148.24 1978.27,1054.42 2030.29,1233.02 2082.3,848.919 2134.31,1445.06 2186.32,151.632 2238.33,330.797 2290.34,887.506 "></polyline>
<path clip-path="url(#clip310)" d="M220.987 1438.47 L493.945 1438.47 L493.945 1334.79 L220.987 1334.79  Z" fill="#ffffff" fill-rule="evenodd" fill-opacity="1"></path>
<polyline clip-path="url(#clip310)" style="stroke:#000000; stroke-linecap:round; stroke-linejoin:round; stroke-width:4; stroke-opacity:1; fill:none" points="220.987,1438.47 493.945,1438.47 493.945,1334.79 220.987,1334.79 220.987,1438.47 "></polyline>
<polyline clip-path="url(#clip310)" style="stroke:#009af9; stroke-linecap:round; stroke-linejoin:round; stroke-width:4; stroke-opacity:1; fill:none" points="245.49,1386.63 392.509,1386.63 "></polyline>
<path clip-path="url(#clip310)" d="M430.854 1406.32 Q429.049 1410.95 427.336 1412.36 Q425.623 1413.78 422.753 1413.78 L419.35 1413.78 L419.35 1410.21 L421.85 1410.21 Q423.609 1410.21 424.581 1409.38 Q425.554 1408.54 426.734 1405.44 L427.498 1403.5 L417.012 1377.99 L421.526 1377.99 L429.628 1398.27 L437.729 1377.99 L442.243 1377.99 L430.854 1406.32 Z" fill="#000000" fill-rule="nonzero" fill-opacity="1"></path><path clip-path="url(#clip310)" d="M449.535 1399.98 L457.174 1399.98 L457.174 1373.61 L448.864 1375.28 L448.864 1371.02 L457.127 1369.35 L461.803 1369.35 L461.803 1399.98 L469.442 1399.98 L469.442 1403.91 L449.535 1403.91 L449.535 1399.98 Z" fill="#000000" fill-rule="nonzero" fill-opacity="1"></path></svg>