<svg xmlns="http://www.w3.org/2000/svg" xmlns:xlink="http://www.w3.org/1999/xlink" width="600" height="400" viewBox="0 0 2400 1600">
<defs>
  <clipPath id="clip270">
    <rect x="0" y="0" width="2400" height="1600"></rect>
  </clipPath>
</defs>
<path clip-path="url(#clip270)" d="M0 1600 L2400 1600 L2400 0 L0 0  Z" fill="#ffffff" fill-rule="evenodd" fill-opacity="1"></path>
<defs>
  <clipPath id="clip271">
    <rect x="480" y="0" width="1681" height="1600"></rect>
  </clipPath>
</defs>
<path clip-path="url(#clip270)" d="M185.927 1486.45 L2352.76 1486.45 L2352.76 47.2441 L185.927 47.2441  Z" fill="#ffffff" fill-rule="evenodd" fill-opacity="1"></path>
<defs>
  <clipPath id="clip272">
    <rect x="185" y="47" width="2168" height="1440"></rect>
  </clipPath>
</defs>
<polyline clip-path="url(#clip272)" style="stroke:#000000; stroke-linecap:round; stroke-linejoin:round; stroke-width:2; stroke-opacity:0.1; fill:none" points="196.148,1486.45 196.148,47.2441 "></polyline>
<polyline clip-path="url(#clip272)" style="stroke:#000000; stroke-linecap:round; stroke-linejoin:round; stroke-width:2; stroke-opacity:0.1; fill:none" points="707.192,1486.45 707.192,47.2441 "></polyline>
<polyline clip-path="url(#clip272)" style="stroke:#000000; stroke-linecap:round; stroke-linejoin:round; stroke-width:2; stroke-opacity:0.1; fill:none" points="1218.24,1486.45 1218.24,47.2441 "></polyline>
<polyline clip-path="url(#clip272)" style="stroke:#000000; stroke-linecap:round; stroke-linejoin:round; stroke-width:2; stroke-opacity:0.1; fill:none" points="1729.28,1486.45 1729.28,47.2441 "></polyline>
<polyline clip-path="url(#clip272)" style="stroke:#000000; stroke-linecap:round; stroke-linejoin:round; stroke-width:2; stroke-opacity:0.1; fill:none" points="2240.33,1486.45 2240.33,47.2441 "></polyline>
<polyline clip-path="url(#clip270)" style="stroke:#000000; stroke-linecap:round; stroke-linejoin:round; stroke-width:4; stroke-opacity:1; fill:none" points="185.927,1486.45 2352.76,1486.45 "></polyline>
<polyline clip-path="url(#clip270)" style="stroke:#000000; stroke-linecap:round; stroke-linejoin:round; stroke-width:4; stroke-opacity:1; fill:none" points="196.148,1486.45 196.148,1467.55 "></polyline>
<polyline clip-path="url(#clip270)" style="stroke:#000000; stroke-linecap:round; stroke-linejoin:round; stroke-width:4; stroke-opacity:1; fill:none" points="707.192,1486.45 707.192,1467.55 "></polyline>
<polyline clip-path="url(#clip270)" style="stroke:#000000; stroke-linecap:round; stroke-linejoin:round; stroke-width:4; stroke-opacity:1; fill:none" points="1218.24,1486.45 1218.24,1467.55 "></polyline>
<polyline clip-path="url(#clip270)" style="stroke:#000000; stroke-linecap:round; stroke-linejoin:round; stroke-width:4; stroke-opacity:1; fill:none" points="1729.28,1486.45 1729.28,1467.55 "></polyline>
<polyline clip-path="url(#clip270)" style="stroke:#000000; stroke-linecap:round; stroke-linejoin:round; stroke-width:4; stroke-opacity:1; fill:none" points="2240.33,1486.45 2240.33,1467.55 "></polyline>
<path clip-path="url(#clip270)" d="M196.148 1517.37 Q192.537 1517.37 190.708 1520.93 Q188.902 1524.47 188.902 1531.6 Q188.902 1538.71 190.708 1542.27 Q192.537 1545.82 196.148 1545.82 Q199.782 1545.82 201.587 1542.27 Q203.416 1538.71 203.416 1531.6 Q203.416 1524.47 201.587 1520.93 Q199.782 1517.37 196.148 1517.37 M196.148 1513.66 Q201.958 1513.66 205.013 1518.27 Q208.092 1522.85 208.092 1531.6 Q208.092 1540.33 205.013 1544.94 Q201.958 1549.52 196.148 1549.52 Q190.338 1549.52 187.259 1544.94 Q184.203 1540.33 184.203 1531.6 Q184.203 1522.85 187.259 1518.27 Q190.338 1513.66 196.148 1513.66 Z" fill="#000000" fill-rule="nonzero" fill-opacity="1"></path><path clip-path="url(#clip270)" d="M681.88 1544.91 L689.519 1544.91 L689.519 1518.55 L681.209 1520.21 L681.209 1515.95 L689.472 1514.29 L694.148 1514.29 L694.148 1544.91 L701.787 1544.91 L701.787 1548.85 L681.88 1548.85 L681.88 1544.91 Z" fill="#000000" fill-rule="nonzero" fill-opacity="1"></path><path clip-path="url(#clip270)" d="M721.232 1517.37 Q717.62 1517.37 715.792 1520.93 Q713.986 1524.47 713.986 1531.6 Q713.986 1538.71 715.792 1542.27 Q717.62 1545.82 721.232 1545.82 Q724.866 1545.82 726.671 1542.27 Q728.5 1538.71 728.5 1531.6 Q728.5 1524.47 726.671 1520.93 Q724.866 1517.37 721.232 1517.37 M721.232 1513.66 Q727.042 1513.66 730.097 1518.27 Q733.176 1522.85 733.176 1531.6 Q733.176 1540.33 730.097 1544.94 Q727.042 1549.52 721.232 1549.52 Q715.421 1549.52 712.343 1544.94 Q709.287 1540.33 709.287 1531.6 Q709.287 1522.85 712.343 1518.27 Q715.421 1513.66 721.232 1513.66 Z" fill="#000000" fill-rule="nonzero" fill-opacity="1"></path><path clip-path="url(#clip270)" d="M1197.01 1544.91 L1213.33 1544.91 L1213.33 1548.85 L1191.39 1548.85 L1191.39 1544.91 Q1194.05 1542.16 1198.63 1537.53 Q1203.24 1532.88 1204.42 1531.53 Q1206.66 1529.01 1207.54 1527.27 Q1208.45 1525.51 1208.45 1523.82 Q1208.45 1521.07 1206.5 1519.33 Q1204.58 1517.6 1201.48 1517.6 Q1199.28 1517.6 1196.82 1518.36 Q1194.39 1519.13 1191.62 1520.68 L1191.62 1515.95 Q1194.44 1514.82 1196.89 1514.24 Q1199.35 1513.66 1201.39 1513.66 Q1206.76 1513.66 1209.95 1516.35 Q1213.14 1519.03 1213.14 1523.52 Q1213.14 1525.65 1212.33 1527.57 Q1211.55 1529.47 1209.44 1532.07 Q1208.86 1532.74 1205.76 1535.95 Q1202.66 1539.15 1197.01 1544.91 Z" fill="#000000" fill-rule="nonzero" fill-opacity="1"></path><path clip-path="url(#clip270)" d="M1233.14 1517.37 Q1229.53 1517.37 1227.7 1520.93 Q1225.9 1524.47 1225.9 1531.6 Q1225.9 1538.71 1227.7 1542.27 Q1229.53 1545.82 1233.14 1545.82 Q1236.78 1545.82 1238.58 1542.27 Q1240.41 1538.71 1240.41 1531.6 Q1240.41 1524.47 1238.58 1520.93 Q1236.78 1517.37 1233.14 1517.37 M1233.14 1513.66 Q1238.95 1513.66 1242.01 1518.27 Q1245.09 1522.85 1245.09 1531.6 Q1245.09 1540.33 1242.01 1544.94 Q1238.95 1549.52 1233.14 1549.52 Q1227.33 1549.52 1224.26 1544.94 Q1221.2 1540.33 1221.2 1531.6 Q1221.2 1522.85 1224.26 1518.27 Q1227.33 1513.66 1233.14 1513.66 Z" fill="#000000" fill-rule="nonzero" fill-opacity="1"></path><path clip-path="url(#clip270)" d="M1718.12 1530.21 Q1721.48 1530.93 1723.36 1533.2 Q1725.25 1535.47 1725.25 1538.8 Q1725.25 1543.92 1721.74 1546.72 Q1718.22 1549.52 1711.74 1549.52 Q1709.56 1549.52 1707.24 1549.08 Q1704.95 1548.66 1702.5 1547.81 L1702.5 1543.29 Q1704.44 1544.43 1706.76 1545.01 Q1709.07 1545.58 1711.6 1545.58 Q1715.99 1545.58 1718.29 1543.85 Q1720.6 1542.11 1720.6 1538.8 Q1720.6 1535.75 1718.45 1534.03 Q1716.32 1532.3 1712.5 1532.3 L1708.47 1532.3 L1708.47 1528.45 L1712.68 1528.45 Q1716.13 1528.45 1717.96 1527.09 Q1719.79 1525.7 1719.79 1523.11 Q1719.79 1520.45 1717.89 1519.03 Q1716.02 1517.6 1712.5 1517.6 Q1710.58 1517.6 1708.38 1518.01 Q1706.18 1518.43 1703.54 1519.31 L1703.54 1515.14 Q1706.2 1514.4 1708.52 1514.03 Q1710.86 1513.66 1712.92 1513.66 Q1718.24 1513.66 1721.34 1516.09 Q1724.44 1518.5 1724.44 1522.62 Q1724.44 1525.49 1722.8 1527.48 Q1721.16 1529.45 1718.12 1530.21 Z" fill="#000000" fill-rule="nonzero" fill-opacity="1"></path><path clip-path="url(#clip270)" d="M1744.12 1517.37 Q1740.51 1517.37 1738.68 1520.93 Q1736.87 1524.47 1736.87 1531.6 Q1736.87 1538.71 1738.68 1542.27 Q1740.51 1545.82 1744.12 1545.82 Q1747.75 1545.82 1749.56 1542.27 Q1751.39 1538.71 1751.39 1531.6 Q1751.39 1524.47 1749.56 1520.93 Q1747.75 1517.37 1744.12 1517.37 M1744.12 1513.66 Q1749.93 1513.66 1752.99 1518.27 Q1756.06 1522.85 1756.06 1531.6 Q1756.06 1540.33 1752.99 1544.94 Q1749.93 1549.52 1744.12 1549.52 Q1738.31 1549.52 1735.23 1544.94 Q1732.17 1540.33 1732.17 1531.6 Q1732.17 1522.85 1735.23 1518.27 Q1738.31 1513.66 1744.12 1513.66 Z" fill="#000000" fill-rule="nonzero" fill-opacity="1"></path><path clip-path="url(#clip270)" d="M2228.5 1518.36 L2216.69 1536.81 L2228.5 1536.81 L2228.5 1518.36 M2227.27 1514.29 L2233.15 1514.29 L2233.15 1536.81 L2238.08 1536.81 L2238.08 1540.7 L2233.15 1540.7 L2233.15 1548.85 L2228.5 1548.85 L2228.5 1540.7 L2212.9 1540.7 L2212.9 1536.19 L2227.27 1514.29 Z" fill="#000000" fill-rule="nonzero" fill-opacity="1"></path><path clip-path="url(#clip270)" d="M2255.81 1517.37 Q2252.2 1517.37 2250.37 1520.93 Q2248.57 1524.47 2248.57 1531.6 Q2248.57 1538.71 2250.37 1542.27 Q2252.2 1545.82 2255.81 1545.82 Q2259.45 1545.82 2261.25 1542.27 Q2263.08 1538.71 2263.08 1531.6 Q2263.08 1524.47 2261.25 1520.93 Q2259.45 1517.37 2255.81 1517.37 M2255.81 1513.66 Q2261.62 1513.66 2264.68 1518.27 Q2267.76 1522.85 2267.76 1531.6 Q2267.76 1540.33 2264.68 1544.94 Q2261.62 1549.52 2255.81 1549.52 Q2250 1549.52 2246.92 1544.94 Q2243.87 1540.33 2243.87 1531.6 Q2243.87 1522.85 2246.92 1518.27 Q2250 1513.66 2255.81 1513.66 Z" fill="#000000" fill-rule="nonzero" fill-opacity="1"></path><polyline clip-path="url(#clip272)" style="stroke:#000000; stroke-linecap:round; stroke-linejoin:round; stroke-width:2; stroke-opacity:0.1; fill:none" points="185.927,1445.72 2352.76,1445.72 "></polyline>
<polyline clip-path="url(#clip272)" style="stroke:#000000; stroke-linecap:round; stroke-linejoin:round; stroke-width:2; stroke-opacity:0.1; fill:none" points="185.927,1106.28 2352.76,1106.28 "></polyline>
<polyline clip-path="url(#clip272)" style="stroke:#000000; stroke-linecap:round; stroke-linejoin:round; stroke-width:2; stroke-opacity:0.1; fill:none" points="185.927,766.846 2352.76,766.846 "></polyline>
<polyline clip-path="url(#clip272)" style="stroke:#000000; stroke-linecap:round; stroke-linejoin:round; stroke-width:2; stroke-opacity:0.1; fill:none" points="185.927,427.411 2352.76,427.411 "></polyline>
<polyline clip-path="url(#clip272)" style="stroke:#000000; stroke-linecap:round; stroke-linejoin:round; stroke-width:2; stroke-opacity:0.1; fill:none" points="185.927,87.9763 2352.76,87.9763 "></polyline>
<polyline clip-path="url(#clip270)" style="stroke:#000000; stroke-linecap:round; stroke-linejoin:round; stroke-width:4; stroke-opacity:1; fill:none" points="185.927,1486.45 185.927,47.2441 "></polyline>
<polyline clip-path="url(#clip270)" style="stroke:#000000; stroke-linecap:round; stroke-linejoin:round; stroke-width:4; stroke-opacity:1; fill:none" points="185.927,1445.72 204.824,1445.72 "></polyline>
<polyline clip-path="url(#clip270)" style="stroke:#000000; stroke-linecap:round; stroke-linejoin:round; stroke-width:4; stroke-opacity:1; fill:none" points="185.927,1106.28 204.824,1106.28 "></polyline>
<polyline clip-path="url(#clip270)" style="stroke:#000000; stroke-linecap:round; stroke-linejoin:round; stroke-width:4; stroke-opacity:1; fill:none" points="185.927,766.846 204.824,766.846 "></polyline>
<polyline clip-path="url(#clip270)" style="stroke:#000000; stroke-linecap:round; stroke-linejoin:round; stroke-width:4; stroke-opacity:1; fill:none" points="185.927,427.411 204.824,427.411 "></polyline>
<polyline clip-path="url(#clip270)" style="stroke:#000000; stroke-linecap:round; stroke-linejoin:round; stroke-width:4; stroke-opacity:1; fill:none" points="185.927,87.9763 204.824,87.9763 "></polyline>
<path clip-path="url(#clip270)" d="M56.6171 1459.06 L72.9365 1459.06 L72.9365 1463 L50.9921 1463 L50.9921 1459.06 Q53.6541 1456.31 58.2375 1451.68 Q62.8439 1447.02 64.0245 1445.68 Q66.2698 1443.16 67.1494 1441.42 Q68.0522 1439.66 68.0522 1437.97 Q68.0522 1435.22 66.1078 1433.48 Q64.1865 1431.75 61.0847 1431.75 Q58.8856 1431.75 56.4319 1432.51 Q54.0014 1433.27 51.2236 1434.82 L51.2236 1430.1 Q54.0477 1428.97 56.5014 1428.39 Q58.955 1427.81 60.9921 1427.81 Q66.3624 1427.81 69.5568 1430.5 Q72.7513 1433.18 72.7513 1437.67 Q72.7513 1439.8 71.9411 1441.72 Q71.1541 1443.62 69.0476 1446.21 Q68.4689 1446.88 65.367 1450.1 Q62.2652 1453.3 56.6171 1459.06 Z" fill="#000000" fill-rule="nonzero" fill-opacity="1"></path><path clip-path="url(#clip270)" d="M82.7512 1457.12 L87.6354 1457.12 L87.6354 1463 L82.7512 1463 L82.7512 1457.12 Z" fill="#000000" fill-rule="nonzero" fill-opacity="1"></path><path clip-path="url(#clip270)" d="M107.821 1431.51 Q104.209 1431.51 102.381 1435.08 Q100.575 1438.62 100.575 1445.75 Q100.575 1452.86 102.381 1456.42 Q104.209 1459.96 107.821 1459.96 Q111.455 1459.96 113.26 1456.42 Q115.089 1452.86 115.089 1445.75 Q115.089 1438.62 113.26 1435.08 Q111.455 1431.51 107.821 1431.51 M107.821 1427.81 Q113.631 1427.81 116.686 1432.42 Q119.765 1437 119.765 1445.75 Q119.765 1454.48 116.686 1459.08 Q113.631 1463.67 107.821 1463.67 Q102.01 1463.67 98.9317 1459.08 Q95.8761 1454.48 95.8761 1445.75 Q95.8761 1437 98.9317 1432.42 Q102.01 1427.81 107.821 1427.81 Z" fill="#000000" fill-rule="nonzero" fill-opacity="1"></path><path clip-path="url(#clip270)" d="M137.982 1431.51 Q134.371 1431.51 132.543 1435.08 Q130.737 1438.62 130.737 1445.75 Q130.737 1452.86 132.543 1456.42 Q134.371 1459.96 137.982 1459.96 Q141.617 1459.96 143.422 1456.42 Q145.251 1452.86 145.251 1445.75 Q145.251 1438.62 143.422 1435.08 Q141.617 1431.51 137.982 1431.51 M137.982 1427.81 Q143.793 1427.81 146.848 1432.42 Q149.927 1437 149.927 1445.75 Q149.927 1454.48 146.848 1459.08 Q143.793 1463.67 137.982 1463.67 Q132.172 1463.67 129.094 1459.08 Q126.038 1454.48 126.038 1445.75 Q126.038 1437 129.094 1432.42 Q132.172 1427.81 137.982 1427.81 Z" fill="#000000" fill-rule="nonzero" fill-opacity="1"></path><path clip-path="url(#clip270)" d="M57.6125 1119.63 L73.9318 1119.63 L73.9318 1123.56 L51.9875 1123.56 L51.9875 1119.63 Q54.6495 1116.87 59.2328 1112.24 Q63.8393 1107.59 65.0198 1106.25 Q67.2652 1103.72 68.1448 1101.99 Q69.0476 1100.23 69.0476 1098.54 Q69.0476 1095.78 67.1032 1094.05 Q65.1819 1092.31 62.08 1092.31 Q59.881 1092.31 57.4273 1093.07 Q54.9967 1093.84 52.219 1095.39 L52.219 1090.67 Q55.043 1089.53 57.4967 1088.95 Q59.9504 1088.38 61.9874 1088.38 Q67.3578 1088.38 70.5522 1091.06 Q73.7466 1093.75 73.7466 1098.24 Q73.7466 1100.37 72.9365 1102.29 Q72.1494 1104.19 70.0429 1106.78 Q69.4642 1107.45 66.3624 1110.67 Q63.2606 1113.86 57.6125 1119.63 Z" fill="#000000" fill-rule="nonzero" fill-opacity="1"></path><path clip-path="url(#clip270)" d="M83.7466 1117.68 L88.6308 1117.68 L88.6308 1123.56 L83.7466 1123.56 L83.7466 1117.68 Z" fill="#000000" fill-rule="nonzero" fill-opacity="1"></path><path clip-path="url(#clip270)" d="M102.844 1119.63 L119.163 1119.63 L119.163 1123.56 L97.2187 1123.56 L97.2187 1119.63 Q99.8808 1116.87 104.464 1112.24 Q109.071 1107.59 110.251 1106.25 Q112.496 1103.72 113.376 1101.99 Q114.279 1100.23 114.279 1098.54 Q114.279 1095.78 112.334 1094.05 Q110.413 1092.31 107.311 1092.31 Q105.112 1092.31 102.659 1093.07 Q100.228 1093.84 97.4502 1095.39 L97.4502 1090.67 Q100.274 1089.53 102.728 1088.95 Q105.182 1088.38 107.219 1088.38 Q112.589 1088.38 115.783 1091.06 Q118.978 1093.75 118.978 1098.24 Q118.978 1100.37 118.168 1102.29 Q117.381 1104.19 115.274 1106.78 Q114.695 1107.45 111.594 1110.67 Q108.492 1113.86 102.844 1119.63 Z" fill="#000000" fill-rule="nonzero" fill-opacity="1"></path><path clip-path="url(#clip270)" d="M129.024 1089 L147.38 1089 L147.38 1092.94 L133.306 1092.94 L133.306 1101.41 Q134.325 1101.06 135.344 1100.9 Q136.362 1100.71 137.381 1100.71 Q143.168 1100.71 146.547 1103.89 Q149.927 1107.06 149.927 1112.47 Q149.927 1118.05 146.455 1121.15 Q142.982 1124.23 136.663 1124.23 Q134.487 1124.23 132.219 1123.86 Q129.973 1123.49 127.566 1122.75 L127.566 1118.05 Q129.649 1119.19 131.871 1119.74 Q134.094 1120.3 136.57 1120.3 Q140.575 1120.3 142.913 1118.19 Q145.251 1116.08 145.251 1112.47 Q145.251 1108.86 142.913 1106.76 Q140.575 1104.65 136.57 1104.65 Q134.695 1104.65 132.82 1105.07 Q130.969 1105.48 129.024 1106.36 L129.024 1089 Z" fill="#000000" fill-rule="nonzero" fill-opacity="1"></path><path clip-path="url(#clip270)" d="M56.6171 780.191 L72.9365 780.191 L72.9365 784.126 L50.9921 784.126 L50.9921 780.191 Q53.6541 777.436 58.2375 772.807 Q62.8439 768.154 64.0245 766.811 Q66.2698 764.288 67.1494 762.552 Q68.0522 760.793 68.0522 759.103 Q68.0522 756.348 66.1078 754.612 Q64.1865 752.876 61.0847 752.876 Q58.8856 752.876 56.4319 753.64 Q54.0014 754.404 51.2236 755.955 L51.2236 751.233 Q54.0477 750.098 56.5014 749.52 Q58.955 748.941 60.9921 748.941 Q66.3624 748.941 69.5568 751.626 Q72.7513 754.311 72.7513 758.802 Q72.7513 760.932 71.9411 762.853 Q71.1541 764.751 69.0476 767.344 Q68.4689 768.015 65.367 771.233 Q62.2652 774.427 56.6171 780.191 Z" fill="#000000" fill-rule="nonzero" fill-opacity="1"></path><path clip-path="url(#clip270)" d="M82.7512 778.246 L87.6354 778.246 L87.6354 784.126 L82.7512 784.126 L82.7512 778.246 Z" fill="#000000" fill-rule="nonzero" fill-opacity="1"></path><path clip-path="url(#clip270)" d="M97.8669 749.566 L116.223 749.566 L116.223 753.501 L102.149 753.501 L102.149 761.973 Q103.168 761.626 104.186 761.464 Q105.205 761.279 106.223 761.279 Q112.01 761.279 115.39 764.45 Q118.77 767.621 118.77 773.038 Q118.77 778.617 115.297 781.719 Q111.825 784.797 105.506 784.797 Q103.33 784.797 101.061 784.427 Q98.8159 784.057 96.4085 783.316 L96.4085 778.617 Q98.4919 779.751 100.714 780.307 Q102.936 780.862 105.413 780.862 Q109.418 780.862 111.756 778.756 Q114.094 776.649 114.094 773.038 Q114.094 769.427 111.756 767.321 Q109.418 765.214 105.413 765.214 Q103.538 765.214 101.663 765.631 Q99.8113 766.047 97.8669 766.927 L97.8669 749.566 Z" fill="#000000" fill-rule="nonzero" fill-opacity="1"></path><path clip-path="url(#clip270)" d="M137.982 752.645 Q134.371 752.645 132.543 756.209 Q130.737 759.751 130.737 766.881 Q130.737 773.987 132.543 777.552 Q134.371 781.094 137.982 781.094 Q141.617 781.094 143.422 777.552 Q145.251 773.987 145.251 766.881 Q145.251 759.751 143.422 756.209 Q141.617 752.645 137.982 752.645 M137.982 748.941 Q143.793 748.941 146.848 753.547 Q149.927 758.131 149.927 766.881 Q149.927 775.608 146.848 780.214 Q143.793 784.797 137.982 784.797 Q132.172 784.797 129.094 780.214 Q126.038 775.608 126.038 766.881 Q126.038 758.131 129.094 753.547 Q132.172 748.941 137.982 748.941 Z" fill="#000000" fill-rule="nonzero" fill-opacity="1"></path><path clip-path="url(#clip270)" d="M57.6125 440.756 L73.9318 440.756 L73.9318 444.691 L51.9875 444.691 L51.9875 440.756 Q54.6495 438.001 59.2328 433.372 Q63.8393 428.719 65.0198 427.376 Q67.2652 424.853 68.1448 423.117 Q69.0476 421.358 69.0476 419.668 Q69.0476 416.914 67.1032 415.177 Q65.1819 413.441 62.08 413.441 Q59.881 413.441 57.4273 414.205 Q54.9967 414.969 52.219 416.52 L52.219 411.798 Q55.043 410.664 57.4967 410.085 Q59.9504 409.506 61.9874 409.506 Q67.3578 409.506 70.5522 412.191 Q73.7466 414.876 73.7466 419.367 Q73.7466 421.497 72.9365 423.418 Q72.1494 425.316 70.0429 427.909 Q69.4642 428.58 66.3624 431.798 Q63.2606 434.992 57.6125 440.756 Z" fill="#000000" fill-rule="nonzero" fill-opacity="1"></path><path clip-path="url(#clip270)" d="M83.7466 438.812 L88.6308 438.812 L88.6308 444.691 L83.7466 444.691 L83.7466 438.812 Z" fill="#000000" fill-rule="nonzero" fill-opacity="1"></path><path clip-path="url(#clip270)" d="M97.6354 410.131 L119.857 410.131 L119.857 412.122 L107.311 444.691 L102.427 444.691 L114.233 414.066 L97.6354 414.066 L97.6354 410.131 Z" fill="#000000" fill-rule="nonzero" fill-opacity="1"></path><path clip-path="url(#clip270)" d="M129.024 410.131 L147.38 410.131 L147.38 414.066 L133.306 414.066 L133.306 422.538 Q134.325 422.191 135.344 422.029 Q136.362 421.844 137.381 421.844 Q143.168 421.844 146.547 425.015 Q149.927 428.187 149.927 433.603 Q149.927 439.182 146.455 442.284 Q142.982 445.362 136.663 445.362 Q134.487 445.362 132.219 444.992 Q129.973 444.622 127.566 443.881 L127.566 439.182 Q129.649 440.316 131.871 440.872 Q134.094 441.427 136.57 441.427 Q140.575 441.427 142.913 439.321 Q145.251 437.214 145.251 433.603 Q145.251 429.992 142.913 427.886 Q140.575 425.779 136.57 425.779 Q134.695 425.779 132.82 426.196 Q130.969 426.613 129.024 427.492 L129.024 410.131 Z" fill="#000000" fill-rule="nonzero" fill-opacity="1"></path><path clip-path="url(#clip270)" d="M66.7559 86.6221 Q70.1124 87.3397 71.9874 89.6082 Q73.8855 91.8767 73.8855 95.21 Q73.8855 100.326 70.367 103.127 Q66.8485 105.928 60.3671 105.928 Q58.1912 105.928 55.8764 105.488 Q53.5847 105.071 51.131 104.215 L51.131 99.7008 Q53.0754 100.835 55.3903 101.414 Q57.7051 101.992 60.2282 101.992 Q64.6263 101.992 66.918 100.256 Q69.2328 98.5202 69.2328 95.21 Q69.2328 92.1545 67.08 90.4415 Q64.9504 88.7054 61.131 88.7054 L57.1032 88.7054 L57.1032 84.8629 L61.3161 84.8629 Q64.7652 84.8629 66.5939 83.4971 Q68.4226 82.1083 68.4226 79.5157 Q68.4226 76.8537 66.5245 75.4416 Q64.6495 74.0064 61.131 74.0064 Q59.2097 74.0064 57.0106 74.4231 Q54.8115 74.8398 52.1727 75.7194 L52.1727 71.5528 Q54.8347 70.812 57.1495 70.4416 Q59.4875 70.0713 61.5476 70.0713 Q66.8717 70.0713 69.9735 72.5018 Q73.0753 74.9092 73.0753 79.0296 Q73.0753 81.8999 71.4318 83.8907 Q69.7883 85.8582 66.7559 86.6221 Z" fill="#000000" fill-rule="nonzero" fill-opacity="1"></path><path clip-path="url(#clip270)" d="M82.7512 99.3767 L87.6354 99.3767 L87.6354 105.256 L82.7512 105.256 L82.7512 99.3767 Z" fill="#000000" fill-rule="nonzero" fill-opacity="1"></path><path clip-path="url(#clip270)" d="M107.821 73.775 Q104.209 73.775 102.381 77.3398 Q100.575 80.8814 100.575 88.011 Q100.575 95.1174 102.381 98.6822 Q104.209 102.224 107.821 102.224 Q111.455 102.224 113.26 98.6822 Q115.089 95.1174 115.089 88.011 Q115.089 80.8814 113.26 77.3398 Q111.455 73.775 107.821 73.775 M107.821 70.0713 Q113.631 70.0713 116.686 74.6777 Q119.765 79.261 119.765 88.011 Q119.765 96.7378 116.686 101.344 Q113.631 105.928 107.821 105.928 Q102.01 105.928 98.9317 101.344 Q95.8761 96.7378 95.8761 88.011 Q95.8761 79.261 98.9317 74.6777 Q102.01 70.0713 107.821 70.0713 Z" fill="#000000" fill-rule="nonzero" fill-opacity="1"></path><path clip-path="url(#clip270)" d="M137.982 73.775 Q134.371 73.775 132.543 77.3398 Q130.737 80.8814 130.737 88.011 Q130.737 95.1174 132.543 98.6822 Q134.371 102.224 137.982 102.224 Q141.617 102.224 143.422 98.6822 Q145.251 95.1174 145.251 88.011 Q145.251 80.8814 143.422 77.3398 Q141.617 73.775 137.982 73.775 M137.982 70.0713 Q143.793 70.0713 146.848 74.6777 Q149.927 79.261 149.927 88.011 Q149.927 96.7378 146.848 101.344 Q143.793 105.928 137.982 105.928 Q132.172 105.928 129.094 101.344 Q126.038 96.7378 126.038 88.011 Q126.038 79.261 129.094 74.6777 Q132.172 70.0713 137.982 70.0713 Z" fill="#000000" fill-rule="nonzero" fill-opacity="1"></path><polyline clip-path="url(#clip272)" style="stroke:#009af9; stroke-linecap:round; stroke-linejoin:round; stroke-width:4; stroke-opacity:1; fill:none" points="247.252,1445.72 298.357,1445.72 349.461,1445.72 400.566,1445.72 451.67,1445.72 502.774,1445.72 553.879,1445.72 604.983,1445.72 656.088,1445.72 707.192,1445.72 758.297,1445.72 809.401,1445.72 860.506,1445.72 911.61,1445.72 962.715,1445.72 1013.82,1445.72 1064.92,1445.72 1116.03,1445.72 1167.13,1445.72 1218.24,1445.72 1269.34,1445.72 1320.45,1445.72 1371.55,1445.72 1422.65,1445.72 1473.76,1445.72 1524.86,1445.72 1575.97,1445.72 1627.07,1445.72 1678.18,1445.72 1729.28,1445.72 1780.39,1445.72 1831.49,1445.72 1882.59,1445.72 1933.7,1445.72 1984.8,1445.72 2035.91,1445.72 2087.01,1445.72 2138.12,1445.72 2189.22,1445.72 2240.33,1445.72 2291.43,1445.72 "></polyline>
<path clip-path="url(#clip270)" d="M2011.42 198.898 L2280.53 198.898 L2280.53 95.2176 L2011.42 95.2176  Z" fill="#ffffff" fill-rule="evenodd" fill-opacity="1"></path>
<polyline clip-path="url(#clip270)" style="stroke:#000000; stroke-linecap:round; stroke-linejoin:round; stroke-width:4; stroke-opacity:1; fill:none" points="2011.42,198.898 2280.53,198.898 2280.53,95.2176 2011.42,95.2176 2011.42,198.898 "></polyline>
<polyline clip-path="url(#clip270)" style="stroke:#009af9; stroke-linecap:round; stroke-linejoin:round; stroke-width:4; stroke-opacity:1; fill:none" points="2035.49,147.058 2179.95,147.058 "></polyline>
<path clip-path="url(#clip270)" d="M2217.86 166.745 Q2216.06 171.375 2214.35 172.787 Q2212.63 174.199 2209.76 174.199 L2206.36 174.199 L2206.36 170.634 L2208.86 170.634 Q2210.62 170.634 2211.59 169.8 Q2212.56 168.967 2213.74 165.865 L2214.51 163.921 L2204.02 138.412 L2208.54 138.412 L2216.64 158.689 L2224.74 138.412 L2229.25 138.412 L2217.86 166.745 Z" fill="#000000" fill-rule="nonzero" fill-opacity="1"></path><path clip-path="url(#clip270)" d="M2236.55 160.402 L2244.18 160.402 L2244.18 134.037 L2235.87 135.703 L2235.87 131.444 L2244.14 129.778 L2248.81 129.778 L2248.81 160.402 L2256.45 160.402 L2256.45 164.338 L2236.55 164.338 L2236.55 160.402 Z" fill="#000000" fill-rule="nonzero" fill-opacity="1"></path></svg>