<svg xmlns="http://www.w3.org/2000/svg" xmlns:xlink="http://www.w3.org/1999/xlink" width="600" height="400" viewBox="0 0 2400 1600">
<defs>
  <clipPath id="clip430">
    <rect x="0" y="0" width="2400" height="1600"></rect>
  </clipPath>
</defs>
<path clip-path="url(#clip430)" d="M0 1600 L2400 1600 L2400 0 L0 0  Z" fill="#ffffff" fill-rule="evenodd" fill-opacity="1"></path>
<defs>
  <clipPath id="clip431">
    <rect x="480" y="0" width="1681" height="1600"></rect>
  </clipPath>
</defs>
<path clip-path="url(#clip430)" d="M193.936 1486.45 L2352.76 1486.45 L2352.76 47.2441 L193.936 47.2441  Z" fill="#ffffff" fill-rule="evenodd" fill-opacity="1"></path>
<defs>
  <clipPath id="clip432">
    <rect x="193" y="47" width="2160" height="1440"></rect>
  </clipPath>
</defs>
<polyline clip-path="url(#clip432)" style="stroke:#000000; stroke-linecap:round; stroke-linejoin:round; stroke-width:2; stroke-opacity:0.1; fill:none" points="204.119,1486.45 204.119,47.2441 "></polyline>
<polyline clip-path="url(#clip432)" style="stroke:#000000; stroke-linecap:round; stroke-linejoin:round; stroke-width:2; stroke-opacity:0.1; fill:none" points="713.275,1486.45 713.275,47.2441 "></polyline>
<polyline clip-path="url(#clip432)" style="stroke:#000000; stroke-linecap:round; stroke-linejoin:round; stroke-width:2; stroke-opacity:0.1; fill:none" points="1222.43,1486.45 1222.43,47.2441 "></polyline>
<polyline clip-path="url(#clip432)" style="stroke:#000000; stroke-linecap:round; stroke-linejoin:round; stroke-width:2; stroke-opacity:0.1; fill:none" points="1731.59,1486.45 1731.59,47.2441 "></polyline>
<polyline clip-path="url(#clip432)" style="stroke:#000000; stroke-linecap:round; stroke-linejoin:round; stroke-width:2; stroke-opacity:0.1; fill:none" points="2240.74,1486.45 2240.74,47.2441 "></polyline>
<polyline clip-path="url(#clip430)" style="stroke:#000000; stroke-linecap:round; stroke-linejoin:round; stroke-width:4; stroke-opacity:1; fill:none" points="193.936,1486.45 2352.76,1486.45 "></polyline>
<polyline clip-path="url(#clip430)" style="stroke:#000000; stroke-linecap:round; stroke-linejoin:round; stroke-width:4; stroke-opacity:1; fill:none" points="204.119,1486.45 204.119,1467.55 "></polyline>
<polyline clip-path="url(#clip430)" style="stroke:#000000; stroke-linecap:round; stroke-linejoin:round; stroke-width:4; stroke-opacity:1; fill:none" points="713.275,1486.45 713.275,1467.55 "></polyline>
<polyline clip-path="url(#clip430)" style="stroke:#000000; stroke-linecap:round; stroke-linejoin:round; stroke-width:4; stroke-opacity:1; fill:none" points="1222.43,1486.45 1222.43,1467.55 "></polyline>
<polyline clip-path="url(#clip430)" style="stroke:#000000; stroke-linecap:round; stroke-linejoin:round; stroke-width:4; stroke-opacity:1; fill:none" points="1731.59,1486.45 1731.59,1467.55 "></polyline>
<polyline clip-path="url(#clip430)" style="stroke:#000000; stroke-linecap:round; stroke-linejoin:round; stroke-width:4; stroke-opacity:1; fill:none" points="2240.74,1486.45 2240.74,1467.55 "></polyline>
<path clip-path="url(#clip430)" d="M204.119 1517.37 Q200.508 1517.37 198.679 1520.93 Q196.874 1524.47 196.874 1531.6 Q196.874 1538.71 198.679 1542.27 Q200.508 1545.82 204.119 1545.82 Q207.753 1545.82 209.559 1542.27 Q211.388 1538.71 211.388 1531.6 Q211.388 1524.47 209.559 1520.93 Q207.753 1517.37 204.119 1517.37 M204.119 1513.66 Q209.929 1513.66 212.985 1518.27 Q216.063 1522.85 216.063 1531.6 Q216.063 1540.33 212.985 1544.94 Q209.929 1549.52 204.119 1549.52 Q198.309 1549.52 195.23 1544.94 Q192.175 1540.33 192.175 1531.6 Q192.175 1522.85 195.23 1518.27 Q198.309 1513.66 204.119 1513.66 Z" fill="#000000" fill-rule="nonzero" fill-opacity="1"></path><path clip-path="url(#clip430)" d="M687.962 1544.91 L695.601 1544.91 L695.601 1518.55 L687.291 1520.21 L687.291 1515.95 L695.555 1514.29 L700.231 1514.29 L700.231 1544.91 L707.87 1544.91 L707.87 1548.85 L687.962 1548.85 L687.962 1544.91 Z" fill="#000000" fill-rule="nonzero" fill-opacity="1"></path><path clip-path="url(#clip430)" d="M727.314 1517.37 Q723.703 1517.37 721.874 1520.93 Q720.069 1524.47 720.069 1531.6 Q720.069 1538.71 721.874 1542.27 Q723.703 1545.82 727.314 1545.82 Q730.948 1545.82 732.754 1542.27 Q734.583 1538.71 734.583 1531.6 Q734.583 1524.47 732.754 1520.93 Q730.948 1517.37 727.314 1517.37 M727.314 1513.66 Q733.124 1513.66 736.18 1518.27 Q739.258 1522.85 739.258 1531.6 Q739.258 1540.33 736.18 1544.94 Q733.124 1549.52 727.314 1549.52 Q721.504 1549.52 718.425 1544.94 Q715.37 1540.33 715.37 1531.6 Q715.37 1522.85 718.425 1518.27 Q721.504 1513.66 727.314 1513.66 Z" fill="#000000" fill-rule="nonzero" fill-opacity="1"></path><path clip-path="url(#clip430)" d="M1201.2 1544.91 L1217.52 1544.91 L1217.52 1548.85 L1195.58 1548.85 L1195.58 1544.91 Q1198.24 1542.16 1202.82 1537.53 Q1207.43 1532.88 1208.61 1531.53 Q1210.86 1529.01 1211.74 1527.27 Q1212.64 1525.51 1212.64 1523.82 Q1212.64 1521.07 1210.69 1519.33 Q1208.77 1517.6 1205.67 1517.6 Q1203.47 1517.6 1201.02 1518.36 Q1198.59 1519.13 1195.81 1520.68 L1195.81 1515.95 Q1198.63 1514.82 1201.09 1514.24 Q1203.54 1513.66 1205.58 1513.66 Q1210.95 1513.66 1214.14 1516.35 Q1217.34 1519.03 1217.34 1523.52 Q1217.34 1525.65 1216.53 1527.57 Q1215.74 1529.47 1213.63 1532.07 Q1213.06 1532.74 1209.95 1535.95 Q1206.85 1539.15 1201.2 1544.91 Z" fill="#000000" fill-rule="nonzero" fill-opacity="1"></path><path clip-path="url(#clip430)" d="M1237.34 1517.37 Q1233.73 1517.37 1231.9 1520.93 Q1230.09 1524.47 1230.09 1531.6 Q1230.09 1538.71 1231.9 1542.27 Q1233.73 1545.82 1237.34 1545.82 Q1240.97 1545.82 1242.78 1542.27 Q1244.61 1538.71 1244.61 1531.6 Q1244.61 1524.47 1242.78 1520.93 Q1240.97 1517.37 1237.34 1517.37 M1237.34 1513.66 Q1243.15 1513.66 1246.2 1518.27 Q1249.28 1522.85 1249.28 1531.6 Q1249.28 1540.33 1246.2 1544.94 Q1243.15 1549.52 1237.34 1549.52 Q1231.53 1549.52 1228.45 1544.94 Q1225.39 1540.33 1225.39 1531.6 Q1225.39 1522.85 1228.45 1518.27 Q1231.53 1513.66 1237.34 1513.66 Z" fill="#000000" fill-rule="nonzero" fill-opacity="1"></path><path clip-path="url(#clip430)" d="M1720.43 1530.21 Q1723.79 1530.93 1725.66 1533.2 Q1727.56 1535.47 1727.56 1538.8 Q1727.56 1543.92 1724.04 1546.72 Q1720.52 1549.52 1714.04 1549.52 Q1711.86 1549.52 1709.55 1549.08 Q1707.26 1548.66 1704.8 1547.81 L1704.8 1543.29 Q1706.75 1544.43 1709.06 1545.01 Q1711.38 1545.58 1713.9 1545.58 Q1718.3 1545.58 1720.59 1543.85 Q1722.91 1542.11 1722.91 1538.8 Q1722.91 1535.75 1720.75 1534.03 Q1718.62 1532.3 1714.8 1532.3 L1710.78 1532.3 L1710.78 1528.45 L1714.99 1528.45 Q1718.44 1528.45 1720.27 1527.09 Q1722.1 1525.7 1722.1 1523.11 Q1722.1 1520.45 1720.2 1519.03 Q1718.32 1517.6 1714.8 1517.6 Q1712.88 1517.6 1710.68 1518.01 Q1708.48 1518.43 1705.85 1519.31 L1705.85 1515.14 Q1708.51 1514.4 1710.82 1514.03 Q1713.16 1513.66 1715.22 1513.66 Q1720.54 1513.66 1723.65 1516.09 Q1726.75 1518.5 1726.75 1522.62 Q1726.75 1525.49 1725.1 1527.48 Q1723.46 1529.45 1720.43 1530.21 Z" fill="#000000" fill-rule="nonzero" fill-opacity="1"></path><path clip-path="url(#clip430)" d="M1746.42 1517.37 Q1742.81 1517.37 1740.98 1520.93 Q1739.18 1524.47 1739.18 1531.6 Q1739.18 1538.71 1740.98 1542.27 Q1742.81 1545.82 1746.42 1545.82 Q1750.06 1545.82 1751.86 1542.27 Q1753.69 1538.71 1753.69 1531.6 Q1753.69 1524.47 1751.86 1520.93 Q1750.06 1517.37 1746.42 1517.37 M1746.42 1513.66 Q1752.23 1513.66 1755.29 1518.27 Q1758.37 1522.85 1758.37 1531.6 Q1758.37 1540.33 1755.29 1544.94 Q1752.23 1549.52 1746.42 1549.52 Q1740.61 1549.52 1737.54 1544.94 Q1734.48 1540.33 1734.48 1531.6 Q1734.48 1522.85 1737.54 1518.27 Q1740.61 1513.66 1746.42 1513.66 Z" fill="#000000" fill-rule="nonzero" fill-opacity="1"></path><path clip-path="url(#clip430)" d="M2228.91 1518.36 L2217.11 1536.81 L2228.91 1536.81 L2228.91 1518.36 M2227.69 1514.29 L2233.57 1514.29 L2233.57 1536.81 L2238.5 1536.81 L2238.5 1540.7 L2233.57 1540.7 L2233.57 1548.85 L2228.91 1548.85 L2228.91 1540.7 L2213.31 1540.7 L2213.31 1536.19 L2227.69 1514.29 Z" fill="#000000" fill-rule="nonzero" fill-opacity="1"></path><path clip-path="url(#clip430)" d="M2256.23 1517.37 Q2252.62 1517.37 2250.79 1520.93 Q2248.98 1524.47 2248.98 1531.6 Q2248.98 1538.71 2250.79 1542.27 Q2252.62 1545.82 2256.23 1545.82 Q2259.86 1545.82 2261.67 1542.27 Q2263.5 1538.71 2263.5 1531.6 Q2263.5 1524.47 2261.67 1520.93 Q2259.86 1517.37 2256.23 1517.37 M2256.23 1513.66 Q2262.04 1513.66 2265.09 1518.27 Q2268.17 1522.85 2268.17 1531.6 Q2268.17 1540.33 2265.09 1544.94 Q2262.04 1549.52 2256.23 1549.52 Q2250.42 1549.52 2247.34 1544.94 Q2244.28 1540.33 2244.28 1531.6 Q2244.28 1522.85 2247.34 1518.27 Q2250.42 1513.66 2256.23 1513.66 Z" fill="#000000" fill-rule="nonzero" fill-opacity="1"></path><polyline clip-path="url(#clip432)" style="stroke:#000000; stroke-linecap:round; stroke-linejoin:round; stroke-width:2; stroke-opacity:0.1; fill:none" points="193.936,1445.72 2352.76,1445.72 "></polyline>
<polyline clip-path="url(#clip432)" style="stroke:#000000; stroke-linecap:round; stroke-linejoin:round; stroke-width:2; stroke-opacity:0.1; fill:none" points="193.936,1057.79 2352.76,1057.79 "></polyline>
<polyline clip-path="url(#clip432)" style="stroke:#000000; stroke-linecap:round; stroke-linejoin:round; stroke-width:2; stroke-opacity:0.1; fill:none" points="193.936,669.865 2352.76,669.865 "></polyline>
<polyline clip-path="url(#clip432)" style="stroke:#000000; stroke-linecap:round; stroke-linejoin:round; stroke-width:2; stroke-opacity:0.1; fill:none" points="193.936,281.939 2352.76,281.939 "></polyline>
<polyline clip-path="url(#clip430)" style="stroke:#000000; stroke-linecap:round; stroke-linejoin:round; stroke-width:4; stroke-opacity:1; fill:none" points="193.936,1486.45 193.936,47.2441 "></polyline>
<polyline clip-path="url(#clip430)" style="stroke:#000000; stroke-linecap:round; stroke-linejoin:round; stroke-width:4; stroke-opacity:1; fill:none" points="193.936,1445.72 212.834,1445.72 "></polyline>
<polyline clip-path="url(#clip430)" style="stroke:#000000; stroke-linecap:round; stroke-linejoin:round; stroke-width:4; stroke-opacity:1; fill:none" points="193.936,1057.79 212.834,1057.79 "></polyline>
<polyline clip-path="url(#clip430)" style="stroke:#000000; stroke-linecap:round; stroke-linejoin:round; stroke-width:4; stroke-opacity:1; fill:none" points="193.936,669.865 212.834,669.865 "></polyline>
<polyline clip-path="url(#clip430)" style="stroke:#000000; stroke-linecap:round; stroke-linejoin:round; stroke-width:4; stroke-opacity:1; fill:none" points="193.936,281.939 212.834,281.939 "></polyline>
<path clip-path="url(#clip430)" d="M50.9921 1446.17 L80.6679 1446.17 L80.6679 1450.1 L50.9921 1450.1 L50.9921 1446.17 Z" fill="#000000" fill-rule="nonzero" fill-opacity="1"></path><path clip-path="url(#clip430)" d="M91.5706 1459.06 L99.2095 1459.06 L99.2095 1432.69 L90.8993 1434.36 L90.8993 1430.1 L99.1632 1428.44 L103.839 1428.44 L103.839 1459.06 L111.478 1459.06 L111.478 1463 L91.5706 1463 L91.5706 1459.06 Z" fill="#000000" fill-rule="nonzero" fill-opacity="1"></path><path clip-path="url(#clip430)" d="M120.922 1457.12 L125.807 1457.12 L125.807 1463 L120.922 1463 L120.922 1457.12 Z" fill="#000000" fill-rule="nonzero" fill-opacity="1"></path><path clip-path="url(#clip430)" d="M145.992 1431.51 Q142.381 1431.51 140.552 1435.08 Q138.746 1438.62 138.746 1445.75 Q138.746 1452.86 140.552 1456.42 Q142.381 1459.96 145.992 1459.96 Q149.626 1459.96 151.431 1456.42 Q153.26 1452.86 153.26 1445.75 Q153.26 1438.62 151.431 1435.08 Q149.626 1431.51 145.992 1431.51 M145.992 1427.81 Q151.802 1427.81 154.857 1432.42 Q157.936 1437 157.936 1445.75 Q157.936 1454.48 154.857 1459.08 Q151.802 1463.67 145.992 1463.67 Q140.181 1463.67 137.103 1459.08 Q134.047 1454.48 134.047 1445.75 Q134.047 1437 137.103 1432.42 Q140.181 1427.81 145.992 1427.81 Z" fill="#000000" fill-rule="nonzero" fill-opacity="1"></path><path clip-path="url(#clip430)" d="M51.9875 1058.24 L81.6633 1058.24 L81.6633 1062.18 L51.9875 1062.18 L51.9875 1058.24 Z" fill="#000000" fill-rule="nonzero" fill-opacity="1"></path><path clip-path="url(#clip430)" d="M101.756 1043.59 Q98.1447 1043.59 96.316 1047.15 Q94.5104 1050.7 94.5104 1057.82 Q94.5104 1064.93 96.316 1068.5 Q98.1447 1072.04 101.756 1072.04 Q105.39 1072.04 107.196 1068.5 Q109.024 1064.93 109.024 1057.82 Q109.024 1050.7 107.196 1047.15 Q105.39 1043.59 101.756 1043.59 M101.756 1039.89 Q107.566 1039.89 110.621 1044.49 Q113.7 1049.07 113.7 1057.82 Q113.7 1066.55 110.621 1071.16 Q107.566 1075.74 101.756 1075.74 Q95.9456 1075.74 92.8669 1071.16 Q89.8114 1066.55 89.8114 1057.82 Q89.8114 1049.07 92.8669 1044.49 Q95.9456 1039.89 101.756 1039.89 Z" fill="#000000" fill-rule="nonzero" fill-opacity="1"></path><path clip-path="url(#clip430)" d="M121.918 1069.19 L126.802 1069.19 L126.802 1075.07 L121.918 1075.07 L121.918 1069.19 Z" fill="#000000" fill-rule="nonzero" fill-opacity="1"></path><path clip-path="url(#clip430)" d="M137.033 1040.51 L155.39 1040.51 L155.39 1044.45 L141.316 1044.45 L141.316 1052.92 Q142.334 1052.57 143.353 1052.41 Q144.371 1052.22 145.39 1052.22 Q151.177 1052.22 154.556 1055.39 Q157.936 1058.57 157.936 1063.98 Q157.936 1069.56 154.464 1072.66 Q150.992 1075.74 144.672 1075.74 Q142.496 1075.74 140.228 1075.37 Q137.982 1075 135.575 1074.26 L135.575 1069.56 Q137.658 1070.7 139.881 1071.25 Q142.103 1071.81 144.58 1071.81 Q148.584 1071.81 150.922 1069.7 Q153.26 1067.59 153.26 1063.98 Q153.26 1060.37 150.922 1058.26 Q148.584 1056.16 144.58 1056.16 Q142.705 1056.16 140.83 1056.57 Q138.978 1056.99 137.033 1057.87 L137.033 1040.51 Z" fill="#000000" fill-rule="nonzero" fill-opacity="1"></path><path clip-path="url(#clip430)" d="M100.76 655.663 Q97.1493 655.663 95.3206 659.228 Q93.515 662.77 93.515 669.899 Q93.515 677.006 95.3206 680.571 Q97.1493 684.112 100.76 684.112 Q104.395 684.112 106.2 680.571 Q108.029 677.006 108.029 669.899 Q108.029 662.77 106.2 659.228 Q104.395 655.663 100.76 655.663 M100.76 651.96 Q106.571 651.96 109.626 656.566 Q112.705 661.149 112.705 669.899 Q112.705 678.626 109.626 683.233 Q106.571 687.816 100.76 687.816 Q94.9502 687.816 91.8715 683.233 Q88.816 678.626 88.816 669.899 Q88.816 661.149 91.8715 656.566 Q94.9502 651.96 100.76 651.96 Z" fill="#000000" fill-rule="nonzero" fill-opacity="1"></path><path clip-path="url(#clip430)" d="M120.922 681.265 L125.807 681.265 L125.807 687.145 L120.922 687.145 L120.922 681.265 Z" fill="#000000" fill-rule="nonzero" fill-opacity="1"></path><path clip-path="url(#clip430)" d="M145.992 655.663 Q142.381 655.663 140.552 659.228 Q138.746 662.77 138.746 669.899 Q138.746 677.006 140.552 680.571 Q142.381 684.112 145.992 684.112 Q149.626 684.112 151.431 680.571 Q153.26 677.006 153.26 669.899 Q153.26 662.77 151.431 659.228 Q149.626 655.663 145.992 655.663 M145.992 651.96 Q151.802 651.96 154.857 656.566 Q157.936 661.149 157.936 669.899 Q157.936 678.626 154.857 683.233 Q151.802 687.816 145.992 687.816 Q140.181 687.816 137.103 683.233 Q134.047 678.626 134.047 669.899 Q134.047 661.149 137.103 656.566 Q140.181 651.96 145.992 651.96 Z" fill="#000000" fill-rule="nonzero" fill-opacity="1"></path><path clip-path="url(#clip430)" d="M101.756 267.738 Q98.1447 267.738 96.316 271.303 Q94.5104 274.844 94.5104 281.974 Q94.5104 289.08 96.316 292.645 Q98.1447 296.187 101.756 296.187 Q105.39 296.187 107.196 292.645 Q109.024 289.08 109.024 281.974 Q109.024 274.844 107.196 271.303 Q105.39 267.738 101.756 267.738 M101.756 264.034 Q107.566 264.034 110.621 268.641 Q113.7 273.224 113.7 281.974 Q113.7 290.701 110.621 295.307 Q107.566 299.89 101.756 299.89 Q95.9456 299.89 92.8669 295.307 Q89.8114 290.701 89.8114 281.974 Q89.8114 273.224 92.8669 268.641 Q95.9456 264.034 101.756 264.034 Z" fill="#000000" fill-rule="nonzero" fill-opacity="1"></path><path clip-path="url(#clip430)" d="M121.918 293.339 L126.802 293.339 L126.802 299.219 L121.918 299.219 L121.918 293.339 Z" fill="#000000" fill-rule="nonzero" fill-opacity="1"></path><path clip-path="url(#clip430)" d="M137.033 264.659 L155.39 264.659 L155.39 268.594 L141.316 268.594 L141.316 277.066 Q142.334 276.719 143.353 276.557 Q144.371 276.372 145.39 276.372 Q151.177 276.372 154.556 279.543 Q157.936 282.715 157.936 288.131 Q157.936 293.71 154.464 296.812 Q150.992 299.89 144.672 299.89 Q142.496 299.89 140.228 299.52 Q137.982 299.15 135.575 298.409 L135.575 293.71 Q137.658 294.844 139.881 295.4 Q142.103 295.955 144.58 295.955 Q148.584 295.955 150.922 293.849 Q153.26 291.742 153.26 288.131 Q153.26 284.52 150.922 282.414 Q148.584 280.307 144.58 280.307 Q142.705 280.307 140.83 280.724 Q138.978 281.14 137.033 282.02 L137.033 264.659 Z" fill="#000000" fill-rule="nonzero" fill-opacity="1"></path><polyline clip-path="url(#clip432)" style="stroke:#009af9; stroke-linecap:round; stroke-linejoin:round; stroke-width:4; stroke-opacity:1; fill:none" points="255.035,87.9763 305.95,1009.3 356.866,1297.21 407.781,938.446 458.697,1352.74 509.612,844.675 560.528,1406.33 611.444,746.64 662.359,1438.12 713.275,684.985 764.19,1445.42 815.106,670.454 866.021,1445.72 916.937,669.865 967.853,1445.72 1018.77,669.865 1069.68,1445.72 1120.6,669.865 1171.51,1445.72 1222.43,669.865 1273.35,1445.72 1324.26,669.865 1375.18,1445.72 1426.09,669.865 1477.01,1445.72 1527.92,669.865 1578.84,1445.72 1629.75,669.865 1680.67,1445.72 1731.59,669.865 1782.5,1445.72 1833.42,669.865 1884.33,1445.72 1935.25,669.865 1986.16,1445.72 2037.08,669.865 2087.99,1445.72 2138.91,669.865 2189.83,1445.72 2240.74,669.865 2291.66,1445.72 "></polyline>
<path clip-path="url(#clip430)" d="M2012.48 198.898 L2280.8 198.898 L2280.8 95.2176 L2012.48 95.2176  Z" fill="#ffffff" fill-rule="evenodd" fill-opacity="1"></path>
<polyline clip-path="url(#clip430)" style="stroke:#000000; stroke-linecap:round; stroke-linejoin:round; stroke-width:4; stroke-opacity:1; fill:none" points="2012.48,198.898 2280.8,198.898 2280.8,95.2176 2012.48,95.2176 2012.48,198.898 "></polyline>
<polyline clip-path="url(#clip430)" style="stroke:#009af9; stroke-linecap:round; stroke-linejoin:round; stroke-width:4; stroke-opacity:1; fill:none" points="2036.47,147.058 2180.39,147.058 "></polyline>
<path clip-path="url(#clip430)" d="M2218.22 166.745 Q2216.42 171.375 2214.7 172.787 Q2212.99 174.199 2210.12 174.199 L2206.72 174.199 L2206.72 170.634 L2209.22 170.634 Q2210.98 170.634 2211.95 169.8 Q2212.92 168.967 2214.1 165.865 L2214.86 163.921 L2204.38 138.412 L2208.89 138.412 L2216.99 158.689 L2225.1 138.412 L2229.61 138.412 L2218.22 166.745 Z" fill="#000000" fill-rule="nonzero" fill-opacity="1"></path><path clip-path="url(#clip430)" d="M2236.9 160.402 L2244.54 160.402 L2244.54 134.037 L2236.23 135.703 L2236.23 131.444 L2244.49 129.778 L2249.17 129.778 L2249.17 160.402 L2256.81 160.402 L2256.81 164.338 L2236.9 164.338 L2236.9 160.402 Z" fill="#000000" fill-rule="nonzero" fill-opacity="1"></path></svg>