<svg xmlns="http://www.w3.org/2000/svg" xmlns:xlink="http://www.w3.org/1999/xlink" width="600" height="400" viewBox="0 0 2400 1600">
<defs>
  <clipPath id="clip390">
    <rect x="0" y="0" width="2400" height="1600"></rect>
  </clipPath>
</defs>
<path clip-path="url(#clip390)" d="M0 1600 L2400 1600 L2400 0 L0 0  Z" fill="#ffffff" fill-rule="evenodd" fill-opacity="1"></path>
<defs>
  <clipPath id="clip391">
    <rect x="480" y="0" width="1681" height="1600"></rect>
  </clipPath>
</defs>
<path clip-path="url(#clip390)" d="M224.098 1486.45 L2352.76 1486.45 L2352.76 47.2441 L224.098 47.2441  Z" fill="#ffffff" fill-rule="evenodd" fill-opacity="1"></path>
<defs>
  <clipPath id="clip392">
    <rect x="224" y="47" width="2130" height="1440"></rect>
  </clipPath>
</defs>
<polyline clip-path="url(#clip392)" style="stroke:#000000; stroke-linecap:round; stroke-linejoin:round; stroke-width:2; stroke-opacity:0.1; fill:none" points="234.139,1486.45 234.139,47.2441 "></polyline>
<polyline clip-path="url(#clip392)" style="stroke:#000000; stroke-linecap:round; stroke-linejoin:round; stroke-width:2; stroke-opacity:0.1; fill:none" points="736.181,1486.45 736.181,47.2441 "></polyline>
<polyline clip-path="url(#clip392)" style="stroke:#000000; stroke-linecap:round; stroke-linejoin:round; stroke-width:2; stroke-opacity:0.1; fill:none" points="1238.22,1486.45 1238.22,47.2441 "></polyline>
<polyline clip-path="url(#clip392)" style="stroke:#000000; stroke-linecap:round; stroke-linejoin:round; stroke-width:2; stroke-opacity:0.1; fill:none" points="1740.26,1486.45 1740.26,47.2441 "></polyline>
<polyline clip-path="url(#clip392)" style="stroke:#000000; stroke-linecap:round; stroke-linejoin:round; stroke-width:2; stroke-opacity:0.1; fill:none" points="2242.31,1486.45 2242.31,47.2441 "></polyline>
<polyline clip-path="url(#clip390)" style="stroke:#000000; stroke-linecap:round; stroke-linejoin:round; stroke-width:4; stroke-opacity:1; fill:none" points="224.098,1486.45 2352.76,1486.45 "></polyline>
<polyline clip-path="url(#clip390)" style="stroke:#000000; stroke-linecap:round; stroke-linejoin:round; stroke-width:4; stroke-opacity:1; fill:none" points="234.139,1486.45 234.139,1467.55 "></polyline>
<polyline clip-path="url(#clip390)" style="stroke:#000000; stroke-linecap:round; stroke-linejoin:round; stroke-width:4; stroke-opacity:1; fill:none" points="736.181,1486.45 736.181,1467.55 "></polyline>
<polyline clip-path="url(#clip390)" style="stroke:#000000; stroke-linecap:round; stroke-linejoin:round; stroke-width:4; stroke-opacity:1; fill:none" points="1238.22,1486.45 1238.22,1467.55 "></polyline>
<polyline clip-path="url(#clip390)" style="stroke:#000000; stroke-linecap:round; stroke-linejoin:round; stroke-width:4; stroke-opacity:1; fill:none" points="1740.26,1486.45 1740.26,1467.55 "></polyline>
<polyline clip-path="url(#clip390)" style="stroke:#000000; stroke-linecap:round; stroke-linejoin:round; stroke-width:4; stroke-opacity:1; fill:none" points="2242.31,1486.45 2242.31,1467.55 "></polyline>
<path clip-path="url(#clip390)" d="M234.139 1517.37 Q230.528 1517.37 228.699 1520.93 Q226.893 1524.47 226.893 1531.6 Q226.893 1538.71 228.699 1542.27 Q230.528 1545.82 234.139 1545.82 Q237.773 1545.82 239.578 1542.27 Q241.407 1538.71 241.407 1531.6 Q241.407 1524.47 239.578 1520.93 Q237.773 1517.37 234.139 1517.37 M234.139 1513.66 Q239.949 1513.66 243.004 1518.27 Q246.083 1522.85 246.083 1531.6 Q246.083 1540.33 243.004 1544.94 Q239.949 1549.52 234.139 1549.52 Q228.329 1549.52 225.25 1544.94 Q222.194 1540.33 222.194 1531.6 Q222.194 1522.85 225.25 1518.27 Q228.329 1513.66 234.139 1513.66 Z" fill="#000000" fill-rule="nonzero" fill-opacity="1"></path><path clip-path="url(#clip390)" d="M710.868 1544.91 L718.507 1544.91 L718.507 1518.55 L710.197 1520.21 L710.197 1515.95 L718.461 1514.29 L723.137 1514.29 L723.137 1544.91 L730.776 1544.91 L730.776 1548.85 L710.868 1548.85 L710.868 1544.91 Z" fill="#000000" fill-rule="nonzero" fill-opacity="1"></path><path clip-path="url(#clip390)" d="M750.22 1517.37 Q746.609 1517.37 744.78 1520.93 Q742.975 1524.47 742.975 1531.6 Q742.975 1538.71 744.78 1542.27 Q746.609 1545.82 750.22 1545.82 Q753.854 1545.82 755.66 1542.27 Q757.488 1538.71 757.488 1531.6 Q757.488 1524.47 755.66 1520.93 Q753.854 1517.37 750.22 1517.37 M750.22 1513.66 Q756.03 1513.66 759.086 1518.27 Q762.164 1522.85 762.164 1531.6 Q762.164 1540.33 759.086 1544.94 Q756.03 1549.52 750.22 1549.52 Q744.41 1549.52 741.331 1544.94 Q738.276 1540.33 738.276 1531.6 Q738.276 1522.85 741.331 1518.27 Q744.41 1513.66 750.22 1513.66 Z" fill="#000000" fill-rule="nonzero" fill-opacity="1"></path><path clip-path="url(#clip390)" d="M1217 1544.91 L1233.32 1544.91 L1233.32 1548.85 L1211.37 1548.85 L1211.37 1544.91 Q1214.03 1542.16 1218.62 1537.53 Q1223.22 1532.88 1224.4 1531.53 Q1226.65 1529.01 1227.53 1527.27 Q1228.43 1525.51 1228.43 1523.82 Q1228.43 1521.07 1226.49 1519.33 Q1224.57 1517.6 1221.46 1517.6 Q1219.26 1517.6 1216.81 1518.36 Q1214.38 1519.13 1211.6 1520.68 L1211.6 1515.95 Q1214.43 1514.82 1216.88 1514.24 Q1219.33 1513.66 1221.37 1513.66 Q1226.74 1513.66 1229.94 1516.35 Q1233.13 1519.03 1233.13 1523.52 Q1233.13 1525.65 1232.32 1527.57 Q1231.53 1529.47 1229.43 1532.07 Q1228.85 1532.74 1225.75 1535.95 Q1222.64 1539.15 1217 1544.91 Z" fill="#000000" fill-rule="nonzero" fill-opacity="1"></path><path clip-path="url(#clip390)" d="M1253.13 1517.37 Q1249.52 1517.37 1247.69 1520.93 Q1245.88 1524.47 1245.88 1531.6 Q1245.88 1538.71 1247.69 1542.27 Q1249.52 1545.82 1253.13 1545.82 Q1256.76 1545.82 1258.57 1542.27 Q1260.4 1538.71 1260.4 1531.6 Q1260.4 1524.47 1258.57 1520.93 Q1256.76 1517.37 1253.13 1517.37 M1253.13 1513.66 Q1258.94 1513.66 1262 1518.27 Q1265.07 1522.85 1265.07 1531.6 Q1265.07 1540.33 1262 1544.94 Q1258.94 1549.52 1253.13 1549.52 Q1247.32 1549.52 1244.24 1544.94 Q1241.19 1540.33 1241.19 1531.6 Q1241.19 1522.85 1244.24 1518.27 Q1247.32 1513.66 1253.13 1513.66 Z" fill="#000000" fill-rule="nonzero" fill-opacity="1"></path><path clip-path="url(#clip390)" d="M1729.11 1530.21 Q1732.46 1530.93 1734.34 1533.2 Q1736.24 1535.47 1736.24 1538.8 Q1736.24 1543.92 1732.72 1546.72 Q1729.2 1549.52 1722.72 1549.52 Q1720.54 1549.52 1718.23 1549.08 Q1715.94 1548.66 1713.48 1547.81 L1713.48 1543.29 Q1715.43 1544.43 1717.74 1545.01 Q1720.06 1545.58 1722.58 1545.58 Q1726.98 1545.58 1729.27 1543.85 Q1731.58 1542.11 1731.58 1538.8 Q1731.58 1535.75 1729.43 1534.03 Q1727.3 1532.3 1723.48 1532.3 L1719.45 1532.3 L1719.45 1528.45 L1723.67 1528.45 Q1727.12 1528.45 1728.95 1527.09 Q1730.77 1525.7 1730.77 1523.11 Q1730.77 1520.45 1728.88 1519.03 Q1727 1517.6 1723.48 1517.6 Q1721.56 1517.6 1719.36 1518.01 Q1717.16 1518.43 1714.52 1519.31 L1714.52 1515.14 Q1717.19 1514.4 1719.5 1514.03 Q1721.84 1513.66 1723.9 1513.66 Q1729.22 1513.66 1732.32 1516.09 Q1735.43 1518.5 1735.43 1522.62 Q1735.43 1525.49 1733.78 1527.48 Q1732.14 1529.45 1729.11 1530.21 Z" fill="#000000" fill-rule="nonzero" fill-opacity="1"></path><path clip-path="url(#clip390)" d="M1755.1 1517.37 Q1751.49 1517.37 1749.66 1520.93 Q1747.86 1524.47 1747.86 1531.6 Q1747.86 1538.71 1749.66 1542.27 Q1751.49 1545.82 1755.1 1545.82 Q1758.74 1545.82 1760.54 1542.27 Q1762.37 1538.71 1762.37 1531.6 Q1762.37 1524.47 1760.54 1520.93 Q1758.74 1517.37 1755.1 1517.37 M1755.1 1513.66 Q1760.91 1513.66 1763.97 1518.27 Q1767.05 1522.85 1767.05 1531.6 Q1767.05 1540.33 1763.97 1544.94 Q1760.91 1549.52 1755.1 1549.52 Q1749.29 1549.52 1746.21 1544.94 Q1743.16 1540.33 1743.16 1531.6 Q1743.16 1522.85 1746.21 1518.27 Q1749.29 1513.66 1755.1 1513.66 Z" fill="#000000" fill-rule="nonzero" fill-opacity="1"></path><path clip-path="url(#clip390)" d="M2230.48 1518.36 L2218.67 1536.81 L2230.48 1536.81 L2230.48 1518.36 M2229.25 1514.29 L2235.13 1514.29 L2235.13 1536.81 L2240.06 1536.81 L2240.06 1540.7 L2235.13 1540.7 L2235.13 1548.85 L2230.48 1548.85 L2230.48 1540.7 L2214.88 1540.7 L2214.88 1536.19 L2229.25 1514.29 Z" fill="#000000" fill-rule="nonzero" fill-opacity="1"></path><path clip-path="url(#clip390)" d="M2257.79 1517.37 Q2254.18 1517.37 2252.35 1520.93 Q2250.55 1524.47 2250.55 1531.6 Q2250.55 1538.71 2252.35 1542.27 Q2254.18 1545.82 2257.79 1545.82 Q2261.43 1545.82 2263.23 1542.27 Q2265.06 1538.71 2265.06 1531.6 Q2265.06 1524.47 2263.23 1520.93 Q2261.43 1517.37 2257.79 1517.37 M2257.79 1513.66 Q2263.6 1513.66 2266.66 1518.27 Q2269.74 1522.85 2269.74 1531.6 Q2269.74 1540.33 2266.66 1544.94 Q2263.6 1549.52 2257.79 1549.52 Q2251.98 1549.52 2248.9 1544.94 Q2245.85 1540.33 2245.85 1531.6 Q2245.85 1522.85 2248.9 1518.27 Q2251.98 1513.66 2257.79 1513.66 Z" fill="#000000" fill-rule="nonzero" fill-opacity="1"></path><polyline clip-path="url(#clip392)" style="stroke:#000000; stroke-linecap:round; stroke-linejoin:round; stroke-width:2; stroke-opacity:0.1; fill:none" points="224.098,1445.72 2352.76,1445.72 "></polyline>
<polyline clip-path="url(#clip392)" style="stroke:#000000; stroke-linecap:round; stroke-linejoin:round; stroke-width:2; stroke-opacity:0.1; fill:none" points="224.098,1106.28 2352.76,1106.28 "></polyline>
<polyline clip-path="url(#clip392)" style="stroke:#000000; stroke-linecap:round; stroke-linejoin:round; stroke-width:2; stroke-opacity:0.1; fill:none" points="224.098,766.846 2352.76,766.846 "></polyline>
<polyline clip-path="url(#clip392)" style="stroke:#000000; stroke-linecap:round; stroke-linejoin:round; stroke-width:2; stroke-opacity:0.1; fill:none" points="224.098,427.411 2352.76,427.411 "></polyline>
<polyline clip-path="url(#clip392)" style="stroke:#000000; stroke-linecap:round; stroke-linejoin:round; stroke-width:2; stroke-opacity:0.1; fill:none" points="224.098,87.9763 2352.76,87.9763 "></polyline>
<polyline clip-path="url(#clip390)" style="stroke:#000000; stroke-linecap:round; stroke-linejoin:round; stroke-width:4; stroke-opacity:1; fill:none" points="224.098,1486.45 224.098,47.2441 "></polyline>
<polyline clip-path="url(#clip390)" style="stroke:#000000; stroke-linecap:round; stroke-linejoin:round; stroke-width:4; stroke-opacity:1; fill:none" points="224.098,1445.72 242.996,1445.72 "></polyline>
<polyline clip-path="url(#clip390)" style="stroke:#000000; stroke-linecap:round; stroke-linejoin:round; stroke-width:4; stroke-opacity:1; fill:none" points="224.098,1106.28 242.996,1106.28 "></polyline>
<polyline clip-path="url(#clip390)" style="stroke:#000000; stroke-linecap:round; stroke-linejoin:round; stroke-width:4; stroke-opacity:1; fill:none" points="224.098,766.846 242.996,766.846 "></polyline>
<polyline clip-path="url(#clip390)" style="stroke:#000000; stroke-linecap:round; stroke-linejoin:round; stroke-width:4; stroke-opacity:1; fill:none" points="224.098,427.411 242.996,427.411 "></polyline>
<polyline clip-path="url(#clip390)" style="stroke:#000000; stroke-linecap:round; stroke-linejoin:round; stroke-width:4; stroke-opacity:1; fill:none" points="224.098,87.9763 242.996,87.9763 "></polyline>
<path clip-path="url(#clip390)" d="M50.9921 1446.17 L80.6679 1446.17 L80.6679 1450.1 L50.9921 1450.1 L50.9921 1446.17 Z" fill="#000000" fill-rule="nonzero" fill-opacity="1"></path><path clip-path="url(#clip390)" d="M91.5706 1459.06 L99.2095 1459.06 L99.2095 1432.69 L90.8993 1434.36 L90.8993 1430.1 L99.1632 1428.44 L103.839 1428.44 L103.839 1459.06 L111.478 1459.06 L111.478 1463 L91.5706 1463 L91.5706 1459.06 Z" fill="#000000" fill-rule="nonzero" fill-opacity="1"></path><path clip-path="url(#clip390)" d="M120.922 1457.12 L125.807 1457.12 L125.807 1463 L120.922 1463 L120.922 1457.12 Z" fill="#000000" fill-rule="nonzero" fill-opacity="1"></path><path clip-path="url(#clip390)" d="M145.992 1431.51 Q142.381 1431.51 140.552 1435.08 Q138.746 1438.62 138.746 1445.75 Q138.746 1452.86 140.552 1456.42 Q142.381 1459.96 145.992 1459.96 Q149.626 1459.96 151.431 1456.42 Q153.26 1452.86 153.26 1445.75 Q153.26 1438.62 151.431 1435.08 Q149.626 1431.51 145.992 1431.51 M145.992 1427.81 Q151.802 1427.81 154.857 1432.42 Q157.936 1437 157.936 1445.75 Q157.936 1454.48 154.857 1459.08 Q151.802 1463.67 145.992 1463.67 Q140.181 1463.67 137.103 1459.08 Q134.047 1454.48 134.047 1445.75 Q134.047 1437 137.103 1432.42 Q140.181 1427.81 145.992 1427.81 Z" fill="#000000" fill-rule="nonzero" fill-opacity="1"></path><path clip-path="url(#clip390)" d="M176.153 1431.51 Q172.542 1431.51 170.714 1435.08 Q168.908 1438.62 168.908 1445.75 Q168.908 1452.86 170.714 1456.42 Q172.542 1459.96 176.153 1459.96 Q179.788 1459.96 181.593 1456.42 Q183.422 1452.86 183.422 1445.75 Q183.422 1438.62 181.593 1435.08 Q179.788 1431.51 176.153 1431.51 M176.153 1427.81 Q181.964 1427.81 185.019 1432.42 Q188.098 1437 188.098 1445.75 Q188.098 1454.48 185.019 1459.08 Q181.964 1463.67 176.153 1463.67 Q170.343 1463.67 167.265 1459.08 Q164.209 1454.48 164.209 1445.75 Q164.209 1437 167.265 1432.42 Q170.343 1427.81 176.153 1427.81 Z" fill="#000000" fill-rule="nonzero" fill-opacity="1"></path><path clip-path="url(#clip390)" d="M51.9875 1106.73 L81.6633 1106.73 L81.6633 1110.67 L51.9875 1110.67 L51.9875 1106.73 Z" fill="#000000" fill-rule="nonzero" fill-opacity="1"></path><path clip-path="url(#clip390)" d="M101.756 1092.08 Q98.1447 1092.08 96.316 1095.64 Q94.5104 1099.19 94.5104 1106.32 Q94.5104 1113.42 96.316 1116.99 Q98.1447 1120.53 101.756 1120.53 Q105.39 1120.53 107.196 1116.99 Q109.024 1113.42 109.024 1106.32 Q109.024 1099.19 107.196 1095.64 Q105.39 1092.08 101.756 1092.08 M101.756 1088.38 Q107.566 1088.38 110.621 1092.98 Q113.7 1097.57 113.7 1106.32 Q113.7 1115.04 110.621 1119.65 Q107.566 1124.23 101.756 1124.23 Q95.9456 1124.23 92.8669 1119.65 Q89.8114 1115.04 89.8114 1106.32 Q89.8114 1097.57 92.8669 1092.98 Q95.9456 1088.38 101.756 1088.38 Z" fill="#000000" fill-rule="nonzero" fill-opacity="1"></path><path clip-path="url(#clip390)" d="M121.918 1117.68 L126.802 1117.68 L126.802 1123.56 L121.918 1123.56 L121.918 1117.68 Z" fill="#000000" fill-rule="nonzero" fill-opacity="1"></path><path clip-path="url(#clip390)" d="M135.806 1089 L158.029 1089 L158.029 1090.99 L145.482 1123.56 L140.598 1123.56 L152.404 1092.94 L135.806 1092.94 L135.806 1089 Z" fill="#000000" fill-rule="nonzero" fill-opacity="1"></path><path clip-path="url(#clip390)" d="M167.195 1089 L185.552 1089 L185.552 1092.94 L171.478 1092.94 L171.478 1101.41 Q172.496 1101.06 173.515 1100.9 Q174.533 1100.71 175.552 1100.71 Q181.339 1100.71 184.718 1103.89 Q188.098 1107.06 188.098 1112.47 Q188.098 1118.05 184.626 1121.15 Q181.153 1124.23 174.834 1124.23 Q172.658 1124.23 170.39 1123.86 Q168.144 1123.49 165.737 1122.75 L165.737 1118.05 Q167.82 1119.19 170.042 1119.74 Q172.265 1120.3 174.741 1120.3 Q178.746 1120.3 181.084 1118.19 Q183.422 1116.08 183.422 1112.47 Q183.422 1108.86 181.084 1106.76 Q178.746 1104.65 174.741 1104.65 Q172.866 1104.65 170.991 1105.07 Q169.14 1105.48 167.195 1106.36 L167.195 1089 Z" fill="#000000" fill-rule="nonzero" fill-opacity="1"></path><path clip-path="url(#clip390)" d="M50.9921 767.297 L80.6679 767.297 L80.6679 771.233 L50.9921 771.233 L50.9921 767.297 Z" fill="#000000" fill-rule="nonzero" fill-opacity="1"></path><path clip-path="url(#clip390)" d="M100.76 752.645 Q97.1493 752.645 95.3206 756.209 Q93.515 759.751 93.515 766.881 Q93.515 773.987 95.3206 777.552 Q97.1493 781.094 100.76 781.094 Q104.395 781.094 106.2 777.552 Q108.029 773.987 108.029 766.881 Q108.029 759.751 106.2 756.209 Q104.395 752.645 100.76 752.645 M100.76 748.941 Q106.571 748.941 109.626 753.547 Q112.705 758.131 112.705 766.881 Q112.705 775.608 109.626 780.214 Q106.571 784.797 100.76 784.797 Q94.9502 784.797 91.8715 780.214 Q88.816 775.608 88.816 766.881 Q88.816 758.131 91.8715 753.547 Q94.9502 748.941 100.76 748.941 Z" fill="#000000" fill-rule="nonzero" fill-opacity="1"></path><path clip-path="url(#clip390)" d="M120.922 778.246 L125.807 778.246 L125.807 784.126 L120.922 784.126 L120.922 778.246 Z" fill="#000000" fill-rule="nonzero" fill-opacity="1"></path><path clip-path="url(#clip390)" d="M136.038 749.566 L154.394 749.566 L154.394 753.501 L140.32 753.501 L140.32 761.973 Q141.339 761.626 142.357 761.464 Q143.376 761.279 144.394 761.279 Q150.181 761.279 153.561 764.45 Q156.941 767.621 156.941 773.038 Q156.941 778.617 153.468 781.719 Q149.996 784.797 143.677 784.797 Q141.501 784.797 139.232 784.427 Q136.987 784.057 134.58 783.316 L134.58 778.617 Q136.663 779.751 138.885 780.307 Q141.107 780.862 143.584 780.862 Q147.589 780.862 149.927 778.756 Q152.265 776.649 152.265 773.038 Q152.265 769.427 149.927 767.321 Q147.589 765.214 143.584 765.214 Q141.709 765.214 139.834 765.631 Q137.982 766.047 136.038 766.927 L136.038 749.566 Z" fill="#000000" fill-rule="nonzero" fill-opacity="1"></path><path clip-path="url(#clip390)" d="M176.153 752.645 Q172.542 752.645 170.714 756.209 Q168.908 759.751 168.908 766.881 Q168.908 773.987 170.714 777.552 Q172.542 781.094 176.153 781.094 Q179.788 781.094 181.593 777.552 Q183.422 773.987 183.422 766.881 Q183.422 759.751 181.593 756.209 Q179.788 752.645 176.153 752.645 M176.153 748.941 Q181.964 748.941 185.019 753.547 Q188.098 758.131 188.098 766.881 Q188.098 775.608 185.019 780.214 Q181.964 784.797 176.153 784.797 Q170.343 784.797 167.265 780.214 Q164.209 775.608 164.209 766.881 Q164.209 758.131 167.265 753.547 Q170.343 748.941 176.153 748.941 Z" fill="#000000" fill-rule="nonzero" fill-opacity="1"></path><path clip-path="url(#clip390)" d="M51.9875 427.863 L81.6633 427.863 L81.6633 431.798 L51.9875 431.798 L51.9875 427.863 Z" fill="#000000" fill-rule="nonzero" fill-opacity="1"></path><path clip-path="url(#clip390)" d="M101.756 413.21 Q98.1447 413.21 96.316 416.775 Q94.5104 420.316 94.5104 427.446 Q94.5104 434.552 96.316 438.117 Q98.1447 441.659 101.756 441.659 Q105.39 441.659 107.196 438.117 Q109.024 434.552 109.024 427.446 Q109.024 420.316 107.196 416.775 Q105.39 413.21 101.756 413.21 M101.756 409.506 Q107.566 409.506 110.621 414.113 Q113.7 418.696 113.7 427.446 Q113.7 436.173 110.621 440.779 Q107.566 445.362 101.756 445.362 Q95.9456 445.362 92.8669 440.779 Q89.8114 436.173 89.8114 427.446 Q89.8114 418.696 92.8669 414.113 Q95.9456 409.506 101.756 409.506 Z" fill="#000000" fill-rule="nonzero" fill-opacity="1"></path><path clip-path="url(#clip390)" d="M121.918 438.812 L126.802 438.812 L126.802 444.691 L121.918 444.691 L121.918 438.812 Z" fill="#000000" fill-rule="nonzero" fill-opacity="1"></path><path clip-path="url(#clip390)" d="M141.015 440.756 L157.334 440.756 L157.334 444.691 L135.39 444.691 L135.39 440.756 Q138.052 438.001 142.635 433.372 Q147.242 428.719 148.422 427.376 Q150.668 424.853 151.547 423.117 Q152.45 421.358 152.45 419.668 Q152.45 416.914 150.505 415.177 Q148.584 413.441 145.482 413.441 Q143.283 413.441 140.83 414.205 Q138.399 414.969 135.621 416.52 L135.621 411.798 Q138.445 410.664 140.899 410.085 Q143.353 409.506 145.39 409.506 Q150.76 409.506 153.955 412.191 Q157.149 414.876 157.149 419.367 Q157.149 421.497 156.339 423.418 Q155.552 425.316 153.445 427.909 Q152.867 428.58 149.765 431.798 Q146.663 434.992 141.015 440.756 Z" fill="#000000" fill-rule="nonzero" fill-opacity="1"></path><path clip-path="url(#clip390)" d="M167.195 410.131 L185.552 410.131 L185.552 414.066 L171.478 414.066 L171.478 422.538 Q172.496 422.191 173.515 422.029 Q174.533 421.844 175.552 421.844 Q181.339 421.844 184.718 425.015 Q188.098 428.187 188.098 433.603 Q188.098 439.182 184.626 442.284 Q181.153 445.362 174.834 445.362 Q172.658 445.362 170.39 444.992 Q168.144 444.622 165.737 443.881 L165.737 439.182 Q167.82 440.316 170.042 440.872 Q172.265 441.427 174.741 441.427 Q178.746 441.427 181.084 439.321 Q183.422 437.214 183.422 433.603 Q183.422 429.992 181.084 427.886 Q178.746 425.779 174.741 425.779 Q172.866 425.779 170.991 426.196 Q169.14 426.613 167.195 427.492 L167.195 410.131 Z" fill="#000000" fill-rule="nonzero" fill-opacity="1"></path><path clip-path="url(#clip390)" d="M100.76 73.775 Q97.1493 73.775 95.3206 77.3398 Q93.515 80.8814 93.515 88.011 Q93.515 95.1174 95.3206 98.6822 Q97.1493 102.224 100.76 102.224 Q104.395 102.224 106.2 98.6822 Q108.029 95.1174 108.029 88.011 Q108.029 80.8814 106.2 77.3398 Q104.395 73.775 100.76 73.775 M100.76 70.0713 Q106.571 70.0713 109.626 74.6777 Q112.705 79.261 112.705 88.011 Q112.705 96.7378 109.626 101.344 Q106.571 105.928 100.76 105.928 Q94.9502 105.928 91.8715 101.344 Q88.816 96.7378 88.816 88.011 Q88.816 79.261 91.8715 74.6777 Q94.9502 70.0713 100.76 70.0713 Z" fill="#000000" fill-rule="nonzero" fill-opacity="1"></path><path clip-path="url(#clip390)" d="M120.922 99.3767 L125.807 99.3767 L125.807 105.256 L120.922 105.256 L120.922 99.3767 Z" fill="#000000" fill-rule="nonzero" fill-opacity="1"></path><path clip-path="url(#clip390)" d="M145.992 73.775 Q142.381 73.775 140.552 77.3398 Q138.746 80.8814 138.746 88.011 Q138.746 95.1174 140.552 98.6822 Q142.381 102.224 145.992 102.224 Q149.626 102.224 151.431 98.6822 Q153.26 95.1174 153.26 88.011 Q153.26 80.8814 151.431 77.3398 Q149.626 73.775 145.992 73.775 M145.992 70.0713 Q151.802 70.0713 154.857 74.6777 Q157.936 79.261 157.936 88.011 Q157.936 96.7378 154.857 101.344 Q151.802 105.928 145.992 105.928 Q140.181 105.928 137.103 101.344 Q134.047 96.7378 134.047 88.011 Q134.047 79.261 137.103 74.6777 Q140.181 70.0713 145.992 70.0713 Z" fill="#000000" fill-rule="nonzero" fill-opacity="1"></path><path clip-path="url(#clip390)" d="M176.153 73.775 Q172.542 73.775 170.714 77.3398 Q168.908 80.8814 168.908 88.011 Q168.908 95.1174 170.714 98.6822 Q172.542 102.224 176.153 102.224 Q179.788 102.224 181.593 98.6822 Q183.422 95.1174 183.422 88.011 Q183.422 80.8814 181.593 77.3398 Q179.788 73.775 176.153 73.775 M176.153 70.0713 Q181.964 70.0713 185.019 74.6777 Q188.098 79.261 188.098 88.011 Q188.098 96.7378 185.019 101.344 Q181.964 105.928 176.153 105.928 Q170.343 105.928 167.265 101.344 Q164.209 96.7378 164.209 88.011 Q164.209 79.261 167.265 74.6777 Q170.343 70.0713 176.153 70.0713 Z" fill="#000000" fill-rule="nonzero" fill-opacity="1"></path><polyline clip-path="url(#clip392)" style="stroke:#009af9; stroke-linecap:round; stroke-linejoin:round; stroke-width:4; stroke-opacity:1; fill:none" points="284.343,1445.72 334.547,87.9763 384.751,1445.72 434.956,87.9763 485.16,1445.72 535.364,87.9763 585.568,1445.72 635.772,87.9763 685.977,1445.72 736.181,87.9763 786.385,1445.72 836.589,87.9763 886.793,1445.72 936.997,87.9763 987.202,1445.72 1037.41,87.9763 1087.61,1445.72 1137.81,87.9763 1188.02,1445.72 1238.22,87.9763 1288.43,1445.72 1338.63,87.9763 1388.84,1445.72 1439.04,87.9763 1489.24,1445.72 1539.45,87.9763 1589.65,1445.72 1639.86,87.9763 1690.06,1445.72 1740.26,87.9763 1790.47,1445.72 1840.67,87.9763 1890.88,1445.72 1941.08,87.9763 1991.29,1445.72 2041.49,87.9763 2091.69,1445.72 2141.9,87.9763 2192.1,1445.72 2242.31,87.9763 2292.51,1445.72 "></polyline>
<path clip-path="url(#clip390)" d="M2016.5 198.898 L2281.8 198.898 L2281.8 95.2176 L2016.5 95.2176  Z" fill="#ffffff" fill-rule="evenodd" fill-opacity="1"></path>
<polyline clip-path="url(#clip390)" style="stroke:#000000; stroke-linecap:round; stroke-linejoin:round; stroke-width:4; stroke-opacity:1; fill:none" points="2016.5,198.898 2281.8,198.898 2281.8,95.2176 2016.5,95.2176 2016.5,198.898 "></polyline>
<polyline clip-path="url(#clip390)" style="stroke:#009af9; stroke-linecap:round; stroke-linejoin:round; stroke-width:4; stroke-opacity:1; fill:none" points="2040.16,147.058 2182.07,147.058 "></polyline>
<path clip-path="url(#clip390)" d="M2219.56 166.745 Q2217.76 171.375 2216.04 172.787 Q2214.33 174.199 2211.46 174.199 L2208.06 174.199 L2208.06 170.634 L2210.56 170.634 Q2212.32 170.634 2213.29 169.8 Q2214.26 168.967 2215.44 165.865 L2216.2 163.921 L2205.72 138.412 L2210.23 138.412 L2218.33 158.689 L2226.44 138.412 L2230.95 138.412 L2219.56 166.745 Z" fill="#000000" fill-rule="nonzero" fill-opacity="1"></path><path clip-path="url(#clip390)" d="M2238.24 160.402 L2245.88 160.402 L2245.88 134.037 L2237.57 135.703 L2237.57 131.444 L2245.83 129.778 L2250.51 129.778 L2250.51 160.402 L2258.15 160.402 L2258.15 164.338 L2238.24 164.338 L2238.24 160.402 Z" fill="#000000" fill-rule="nonzero" fill-opacity="1"></path></svg>